<svg xmlns="http://www.w3.org/2000/svg" width="22.917" height="25.355" viewBox="0 0 22.917 25.355">
  <g id="Moon-3" transform="translate(0 7.169) rotate(-30)">
    <path id="Path_51504" data-name="Path 51504" d="M10.5,21a10.5,10.5,0,0,1,0-21,10.325,10.325,0,0,1,3.621.652c.145.072.217.145.217.29a.553.553,0,0,1-.145.362,11.169,11.169,0,0,0-4.779,9.2,11.36,11.36,0,0,0,4.779,9.2c.145.072.145.217.145.362s-.072.217-.217.29A10.325,10.325,0,0,1,10.5,21ZM10.5.724a9.776,9.776,0,0,0,0,19.552,9.094,9.094,0,0,0,2.752-.434,11.845,11.845,0,0,1,0-18.683A9.456,9.456,0,0,0,10.5.724ZM7.6,18.1A1.086,1.086,0,1,1,8.69,17.017,1.114,1.114,0,0,1,7.6,18.1Zm0-1.448a.362.362,0,1,0,.362.362A.388.388,0,0,0,7.6,16.655Zm-2.534-2.9a2.172,2.172,0,0,1,0-4.345,2.134,2.134,0,0,1,2.172,2.172A2.179,2.179,0,0,1,5.069,13.759Zm0-3.621a1.448,1.448,0,1,0,1.448,1.448A1.453,1.453,0,0,0,5.069,10.138Z" transform="translate(0 0)" fill="#fff"/>
  </g>
</svg>
