<svg id="Geek-1" xmlns="http://www.w3.org/2000/svg" width="20.342" height="20.207" viewBox="0 0 20.342 20.207">
  <g id="Group_38232" data-name="Group 38232" transform="translate(9.464 7.039)">
    <path id="Path_51505" data-name="Path 51505" d="M15.027,11.494a.4.4,0,0,1-.269-.067l-.067-.135-.067.067a.333.333,0,0,1-.472-.472l.337-.337a.326.326,0,0,1,.472,0l.337.337a.326.326,0,0,1,0,.472A.269.269,0,0,1,15.027,11.494Z" transform="translate(-14.05 -10.45)" fill="#fff"/>
  </g>
  <g id="Group_38233" data-name="Group 38233" transform="translate(12.772 6.305)">
    <path id="Path_51506" data-name="Path 51506" d="M19.324,11.139a.37.37,0,0,1-.337-.2.417.417,0,0,1,.135-.472l2.358-1.078a.417.417,0,0,1,.472.135.417.417,0,0,1-.135.472l-2.358,1.145Z" transform="translate(-18.961 -9.361)" fill="#fff"/>
  </g>
  <g id="Group_38234" data-name="Group 38234" transform="translate(4.176 6.736)">
    <path id="Path_51507" data-name="Path 51507" d="M9.1,11.347H9.029l-2.56-.674A.343.343,0,0,1,6.6,10l2.56.674a.369.369,0,0,1,.269.4A.344.344,0,0,1,9.1,11.347Z" transform="translate(-6.2 -10)" fill="#fff"/>
  </g>
  <g id="Group_38235" data-name="Group 38235" transform="translate(4.041)">
    <path id="Path_51508" data-name="Path 51508" d="M11.995,14.145c-2.088,0-3.907-1.684-4.648-4.311H7.212c-.674,0-1.145-.876-1.145-2.021A3.975,3.975,0,0,1,6.2,6.871,3.736,3.736,0,0,1,6,5.725,5.869,5.869,0,0,1,11.995,0a6.036,6.036,0,0,1,6.13,5.725,7.5,7.5,0,0,1-.135,1.145,3.975,3.975,0,0,1,.135.943c0,1.145-.539,2.021-1.212,2.021h0C16.171,12.327,14.083,14.145,11.995,14.145ZM7.617,9.161h.135c.067.067.2.135.2.2.606,2.425,2.223,4.041,4.041,4.041,1.886,0,3.839-1.819,4.378-4.109a.179.179,0,0,1,.2-.2c.067-.067.2,0,.337,0h.067c.2,0,.539-.539.539-1.347a2.9,2.9,0,0,0-.135-.808v-.2c0-.337.067-.674.067-1.01A5.316,5.316,0,0,0,11.995.674,5.194,5.194,0,0,0,6.674,5.725,6.716,6.716,0,0,0,6.808,6.8v.2a3.381,3.381,0,0,0-.135.808c0,.808.337,1.347.539,1.347h.4Z" transform="translate(-6)" fill="#fff"/>
  </g>
  <g id="Group_38236" data-name="Group 38236" transform="translate(0 12.865)">
    <path id="Path_51509" data-name="Path 51509" d="M19.871,26.442H.337A.318.318,0,0,1,0,26.105V25.3c0-2.155,1.415-4.985,3.637-5.793l2.223-.4a.371.371,0,0,1,.337.135A5.346,5.346,0,0,0,10.1,21.053a5.461,5.461,0,0,0,3.907-1.819.515.515,0,0,1,.337-.135l2.155.4h.067c2.223.808,3.772,3.772,3.772,5.928v.606C20.207,26.307,20.073,26.442,19.871,26.442Zm-19.2-.674h18.86V25.5c0-1.953-1.415-4.58-3.3-5.254l-1.953-.4a6,6,0,0,1-4.244,1.886,6,6,0,0,1-4.244-1.886l-1.953.4c-1.886.674-3.1,3.166-3.1,5.119v.4Z" transform="translate(0 -19.1)" fill="#fff"/>
  </g>
  <g id="Group_38237" data-name="Group 38237" transform="translate(4.378 2.694)">
    <path id="Path_51510" data-name="Path 51510" d="M17.614,8.715H16.6a.247.247,0,0,1-.2-.067,2.554,2.554,0,0,1-.741-1.28A6.4,6.4,0,0,1,11.35,5.28a.526.526,0,0,1-.269.269,2.881,2.881,0,0,1-2.29.472h-.2a5.2,5.2,0,0,0-.4,2.358.318.318,0,0,1-.337.337H6.837a.337.337,0,1,1,0-.674H7.51c.067-1.819.4-2.694,1.01-2.694h.337a2.569,2.569,0,0,0,1.751-.269.839.839,0,0,0,.269-.741.337.337,0,0,1,.674,0c0,.472,1.886,2.358,4.378,2.358a.318.318,0,0,1,.337.337,2.022,2.022,0,0,0,.472,1.01h.876a.337.337,0,0,1,0,.674Z" transform="translate(-6.5 -4)" fill="#fff"/>
  </g>
  <g id="Group_38238" data-name="Group 38238" transform="translate(6.736 6.736)">
    <path id="Path_51511" data-name="Path 51511" d="M11.684,12.694A1.538,1.538,0,0,1,10,11.347,1.538,1.538,0,0,1,11.684,10a1.538,1.538,0,0,1,1.684,1.347A1.538,1.538,0,0,1,11.684,12.694Zm0-2.021c-.539,0-1.01.337-1.01.674s.472.674,1.01.674,1.01-.337,1.01-.674S12.223,10.674,11.684,10.674Z" transform="translate(-10 -10)" fill="#fff"/>
  </g>
  <g id="Group_38239" data-name="Group 38239" transform="translate(10.104 6.736)">
    <path id="Path_51512" data-name="Path 51512" d="M16.684,12.694A1.538,1.538,0,0,1,15,11.347,1.538,1.538,0,0,1,16.684,10a1.538,1.538,0,0,1,1.684,1.347A1.538,1.538,0,0,1,16.684,12.694Zm0-2.021c-.539,0-1.01.337-1.01.674s.472.674,1.01.674,1.01-.337,1.01-.674S17.223,10.674,16.684,10.674Z" transform="translate(-15 -10)" fill="#fff"/>
  </g>
</svg>
