<svg id="svg" version="1.1" xmlns="http://www.w3.org/2000/svg" xmlns:xlink="http://www.w3.org/1999/xlink" width="400" height="128.2882882882883" viewBox="0, 0, 400,128.2882882882883"><g id="svgg"><path id="path0" d="M39.167 55.500 C 38.938 55.770,38.680 55.992,38.594 55.995 C 38.307 56.004,37.336 56.747,37.334 56.958 C 37.334 57.073,37.222 57.167,37.085 57.167 C 36.949 57.167,36.680 57.298,36.488 57.458 C 36.296 57.619,35.983 57.881,35.794 58.042 C 35.604 58.202,35.389 58.333,35.315 58.333 C 35.241 58.333,34.874 58.633,34.500 59.000 C 34.126 59.367,33.759 59.667,33.685 59.667 C 33.610 59.667,33.314 59.892,33.026 60.167 C 32.738 60.442,32.433 60.667,32.347 60.667 C 32.261 60.667,31.912 60.929,31.572 61.250 C 31.232 61.571,30.900 61.833,30.835 61.833 C 30.769 61.833,30.481 62.058,30.193 62.333 C 29.905 62.608,29.628 62.833,29.578 62.833 C 29.463 62.833,29.142 63.097,28.413 63.792 C 28.100 64.090,27.729 64.333,27.589 64.333 C 27.448 64.333,27.333 64.408,27.333 64.500 C 27.333 64.592,27.251 64.667,27.150 64.667 C 27.049 64.667,26.757 64.892,26.500 65.167 C 26.243 65.442,25.913 65.667,25.766 65.667 C 25.620 65.667,25.500 65.766,25.500 65.889 C 25.500 66.011,25.313 66.211,25.083 66.333 C 24.854 66.456,24.667 66.619,24.667 66.695 C 24.667 66.771,24.565 66.833,24.441 66.833 C 24.317 66.833,23.981 67.058,23.693 67.333 C 23.405 67.608,23.107 67.833,23.031 67.833 C 22.955 67.833,22.541 68.171,22.110 68.583 C 21.680 68.996,21.277 69.333,21.216 69.333 C 21.071 69.333,19.101 70.868,19.028 71.038 C 18.997 71.109,18.866 71.167,18.736 71.167 C 18.606 71.167,18.500 71.225,18.500 71.297 C 18.500 71.369,18.294 71.550,18.042 71.699 C 17.378 72.092,16.833 72.593,16.833 72.811 C 16.833 72.915,16.676 73.000,16.484 73.000 C 16.291 73.000,15.933 73.206,15.687 73.458 C 15.441 73.710,15.097 73.997,14.923 74.094 C 14.466 74.350,14.193 74.855,14.458 74.952 C 14.573 74.994,14.667 75.106,14.667 75.203 C 14.667 75.427,15.280 75.961,15.686 76.090 C 15.859 76.144,16.000 76.259,16.000 76.345 C 16.000 76.430,16.082 76.500,16.183 76.500 C 16.284 76.500,16.576 76.725,16.833 77.000 C 17.090 77.275,17.352 77.500,17.415 77.500 C 17.479 77.500,17.837 77.762,18.212 78.083 C 18.587 78.404,18.956 78.667,19.032 78.667 C 19.108 78.667,19.405 78.892,19.693 79.167 C 19.981 79.442,20.274 79.667,20.344 79.667 C 20.414 79.667,20.834 80.004,21.277 80.417 C 21.720 80.829,22.144 81.167,22.220 81.167 C 22.295 81.167,22.452 81.260,22.568 81.375 C 22.684 81.490,22.988 81.733,23.243 81.917 C 23.499 82.100,23.868 82.400,24.063 82.583 C 24.257 82.767,24.642 83.029,24.917 83.167 C 25.192 83.304,25.604 83.607,25.833 83.840 C 26.063 84.073,26.550 84.486,26.917 84.757 C 27.283 85.028,27.729 85.381,27.906 85.542 C 28.084 85.702,28.290 85.833,28.364 85.833 C 28.439 85.833,28.778 86.096,29.118 86.417 C 29.458 86.738,29.795 87.000,29.868 87.000 C 29.940 87.000,30.309 87.300,30.687 87.667 C 31.064 88.033,31.477 88.333,31.603 88.333 C 31.730 88.333,31.833 88.408,31.833 88.500 C 31.833 88.592,31.906 88.667,31.994 88.667 C 32.083 88.667,32.326 88.823,32.536 89.014 C 33.567 89.953,34.271 90.493,34.470 90.496 C 34.722 90.501,35.167 90.903,35.167 91.127 C 35.167 91.209,35.354 91.377,35.583 91.500 C 35.813 91.623,36.000 91.785,36.000 91.861 C 36.000 91.938,36.113 92.000,36.252 92.000 C 36.390 92.000,36.738 92.225,37.026 92.500 C 37.314 92.775,37.601 93.000,37.665 93.000 C 37.728 93.000,38.138 93.337,38.574 93.750 C 39.011 94.162,39.473 94.500,39.601 94.500 C 39.729 94.500,39.833 94.575,39.833 94.667 C 39.833 94.758,39.983 94.833,40.167 94.833 C 40.498 94.833,40.500 94.722,40.500 74.917 L 40.500 55.000 40.042 55.005 C 39.744 55.008,39.437 55.182,39.167 55.500 " stroke="none" fill="#9ccc3c" fill-rule="evenodd"></path><path id="path1" d="M53.167 82.083 L 53.167 102.000 53.590 102.000 C 53.823 102.000,54.175 101.850,54.372 101.667 C 54.569 101.483,54.828 101.333,54.948 101.333 C 55.068 101.333,55.167 101.258,55.167 101.167 C 55.167 101.075,55.245 101.000,55.341 101.000 C 55.567 101.000,56.333 100.234,56.333 100.008 C 56.333 99.912,56.472 99.833,56.642 99.833 C 56.812 99.833,57.186 99.608,57.474 99.333 C 57.762 99.058,58.084 98.833,58.190 98.833 C 58.296 98.833,58.638 98.571,58.950 98.250 C 59.261 97.929,59.578 97.667,59.655 97.667 C 59.731 97.667,60.102 97.367,60.480 97.000 C 60.858 96.633,61.282 96.333,61.422 96.333 C 61.562 96.333,61.720 96.221,61.773 96.084 C 61.825 95.947,61.924 95.870,61.992 95.912 C 62.061 95.954,62.215 95.804,62.336 95.578 C 62.457 95.352,62.677 95.167,62.825 95.167 C 62.972 95.167,63.201 95.017,63.333 94.833 C 63.465 94.650,63.653 94.500,63.750 94.500 C 63.847 94.500,64.035 94.350,64.167 94.167 C 64.299 93.983,64.528 93.833,64.675 93.833 C 64.823 93.833,65.044 93.646,65.167 93.417 C 65.289 93.188,65.483 93.000,65.598 93.000 C 65.712 93.000,65.831 92.931,65.861 92.846 C 65.892 92.761,66.025 92.667,66.157 92.638 C 66.290 92.608,66.649 92.340,66.955 92.042 C 67.261 91.744,67.587 91.500,67.679 91.500 C 67.771 91.500,68.141 91.200,68.500 90.833 C 68.859 90.467,69.252 90.167,69.373 90.167 C 69.494 90.167,69.701 90.017,69.833 89.833 C 69.965 89.650,70.142 89.500,70.226 89.500 C 70.310 89.500,70.552 89.313,70.765 89.083 C 70.977 88.854,71.202 88.667,71.264 88.667 C 71.327 88.667,71.499 88.527,71.647 88.357 C 71.795 88.187,72.067 88.000,72.250 87.941 C 72.433 87.882,72.996 87.459,73.500 87.001 C 74.004 86.543,74.494 86.168,74.588 86.167 C 74.683 86.167,74.868 86.017,75.000 85.833 C 75.132 85.650,75.325 85.500,75.429 85.500 C 75.532 85.500,75.853 85.275,76.140 85.000 C 76.428 84.725,76.737 84.500,76.827 84.500 C 76.918 84.500,77.323 84.169,77.728 83.764 C 78.133 83.359,78.697 82.907,78.982 82.759 C 79.801 82.336,79.259 80.833,78.288 80.833 C 78.170 80.833,77.965 80.683,77.833 80.500 C 77.701 80.317,77.497 80.167,77.380 80.167 C 77.263 80.167,77.167 80.092,77.167 80.000 C 77.167 79.908,77.017 79.833,76.833 79.833 C 76.650 79.833,76.500 79.777,76.500 79.708 C 76.499 79.470,75.710 78.667,75.476 78.667 C 75.346 78.667,75.132 78.517,75.000 78.333 C 74.868 78.150,74.680 78.000,74.583 78.000 C 74.486 78.000,74.299 77.850,74.167 77.667 C 74.035 77.483,73.841 77.333,73.737 77.333 C 73.632 77.333,73.408 77.148,73.238 76.922 C 73.068 76.696,72.701 76.418,72.423 76.305 C 72.144 76.191,71.633 75.813,71.285 75.466 C 70.938 75.118,70.597 74.833,70.528 74.833 C 70.459 74.833,70.138 74.590,69.814 74.292 C 69.489 73.994,69.122 73.727,68.998 73.698 C 68.873 73.669,68.645 73.501,68.491 73.323 C 68.337 73.145,68.160 73.000,68.098 73.000 C 67.968 73.000,67.780 72.846,66.720 71.875 C 66.295 71.485,65.828 71.165,65.682 71.163 C 65.536 71.161,65.192 70.899,64.918 70.580 C 64.644 70.261,64.364 70.000,64.295 70.000 C 64.175 70.000,63.703 69.644,63.243 69.208 C 63.123 69.094,62.942 69.000,62.842 69.000 C 62.743 69.000,62.338 68.662,61.942 68.250 C 61.547 67.837,61.129 67.500,61.012 67.500 C 60.896 67.500,60.590 67.275,60.333 67.000 C 60.076 66.725,59.746 66.500,59.600 66.500 C 59.453 66.500,59.333 66.425,59.333 66.333 C 59.333 66.242,59.250 66.167,59.149 66.167 C 59.048 66.167,58.817 65.979,58.637 65.750 C 58.457 65.521,58.239 65.333,58.153 65.333 C 58.067 65.333,57.764 65.111,57.480 64.839 C 57.195 64.567,56.750 64.250,56.490 64.135 C 56.230 64.020,55.934 63.772,55.833 63.583 C 55.732 63.395,55.443 63.149,55.190 63.037 C 54.936 62.925,54.568 62.683,54.372 62.500 C 54.175 62.317,53.823 62.167,53.590 62.167 L 53.167 62.167 53.167 82.083 " stroke="none" fill="#3cb44c" fill-rule="evenodd"></path><path id="path2" d="M92.167 52.167 L 92.167 72.167 92.600 72.167 C 92.866 72.167,93.213 71.974,93.500 71.667 C 93.757 71.392,94.036 71.167,94.120 71.167 C 94.205 71.167,94.626 70.829,95.056 70.417 C 95.487 70.004,95.918 69.667,96.015 69.667 C 96.111 69.667,96.285 69.573,96.401 69.458 C 96.517 69.344,96.821 69.100,97.078 68.917 C 97.334 68.733,97.794 68.340,98.100 68.042 C 98.406 67.744,98.756 67.500,98.879 67.500 C 99.157 67.500,100.333 66.438,100.333 66.186 C 100.333 66.084,100.483 66.000,100.667 66.000 C 100.850 66.000,101.000 65.925,101.000 65.833 C 101.000 65.742,101.096 65.667,101.213 65.667 C 101.330 65.667,101.535 65.517,101.667 65.333 C 101.799 65.150,101.984 65.000,102.078 65.000 C 102.327 65.000,103.167 64.245,103.167 64.022 C 103.167 63.918,103.323 63.833,103.513 63.833 C 103.704 63.833,104.148 63.533,104.500 63.167 C 104.852 62.800,105.231 62.500,105.342 62.500 C 105.453 62.500,105.792 62.237,106.094 61.917 C 106.397 61.596,106.745 61.333,106.869 61.333 C 106.992 61.333,107.201 61.183,107.333 61.000 C 107.465 60.817,107.653 60.667,107.750 60.667 C 107.847 60.667,108.035 60.517,108.167 60.333 C 108.299 60.150,108.540 60.000,108.703 60.000 C 108.867 60.000,109.000 59.922,109.000 59.826 C 109.000 59.570,109.780 58.833,110.051 58.833 C 110.179 58.833,110.519 58.608,110.807 58.333 C 111.095 58.058,111.402 57.833,111.489 57.833 C 111.576 57.833,111.989 57.496,112.408 57.083 C 112.826 56.671,113.251 56.333,113.351 56.333 C 113.451 56.333,113.743 56.108,114.000 55.833 C 114.257 55.558,114.547 55.333,114.645 55.333 C 114.742 55.333,115.085 55.071,115.406 54.750 C 115.726 54.429,116.072 54.167,116.173 54.167 C 116.274 54.167,116.452 54.073,116.568 53.958 C 116.684 53.844,116.978 53.601,117.222 53.419 C 117.467 53.237,117.667 52.993,117.667 52.877 C 117.667 52.761,117.817 52.667,118.000 52.667 C 118.246 52.667,118.333 52.556,118.333 52.242 C 118.333 51.775,117.663 51.000,117.258 51.000 C 117.116 51.000,117.000 50.925,117.000 50.833 C 117.000 50.742,116.888 50.667,116.750 50.667 C 116.612 50.667,116.500 50.567,116.500 50.445 C 116.500 50.323,116.294 50.117,116.042 49.987 C 115.790 49.856,115.384 49.544,115.141 49.292 C 114.898 49.040,114.617 48.833,114.516 48.833 C 114.416 48.833,114.333 48.758,114.333 48.667 C 114.333 48.575,114.215 48.500,114.071 48.500 C 113.779 48.500,113.333 48.113,113.333 47.859 C 113.333 47.769,113.108 47.595,112.833 47.473 C 112.558 47.352,112.333 47.195,112.333 47.126 C 112.333 47.057,112.237 47.000,112.120 47.000 C 112.003 47.000,111.799 46.850,111.667 46.667 C 111.535 46.483,111.329 46.333,111.210 46.333 C 111.092 46.333,110.671 45.996,110.276 45.583 C 109.881 45.171,109.469 44.833,109.360 44.833 C 109.252 44.833,108.928 44.608,108.640 44.333 C 108.353 44.058,107.978 43.833,107.809 43.833 C 107.639 43.833,107.500 43.755,107.500 43.659 C 107.500 43.409,106.723 42.667,106.461 42.667 C 106.340 42.667,106.132 42.517,106.000 42.333 C 105.868 42.150,105.698 42.000,105.622 42.000 C 105.547 42.000,105.302 41.831,105.078 41.625 C 104.005 40.638,103.833 40.500,103.673 40.500 C 103.578 40.500,103.500 40.425,103.500 40.333 C 103.500 40.242,103.380 40.167,103.234 40.167 C 103.087 40.167,102.757 39.942,102.500 39.667 C 102.243 39.392,101.913 39.167,101.766 39.167 C 101.620 39.167,101.500 39.054,101.500 38.917 C 101.500 38.779,101.418 38.667,101.317 38.667 C 101.216 38.667,100.924 38.442,100.667 38.167 C 100.410 37.892,100.117 37.667,100.015 37.667 C 99.913 37.667,99.595 37.442,99.307 37.167 C 99.019 36.892,98.728 36.667,98.659 36.667 C 98.591 36.667,98.178 36.329,97.741 35.917 C 97.304 35.504,96.841 35.167,96.712 35.167 C 96.448 35.167,96.000 34.772,96.000 34.540 C 96.000 34.457,95.794 34.284,95.542 34.154 C 95.290 34.025,94.962 33.787,94.814 33.626 C 94.666 33.465,94.459 33.333,94.355 33.333 C 94.252 33.333,94.167 33.258,94.167 33.167 C 94.167 33.075,94.049 33.000,93.905 33.000 C 93.605 33.000,93.167 32.611,93.167 32.345 C 93.167 32.247,92.942 32.167,92.667 32.167 L 92.167 32.167 92.167 52.167 M224.333 58.333 C 224.333 58.431,223.750 58.500,222.917 58.500 C 222.083 58.500,221.500 58.569,221.500 58.667 C 221.500 58.761,221.028 58.833,220.417 58.833 C 219.806 58.833,219.333 58.906,219.333 59.000 C 219.333 59.092,219.031 59.167,218.661 59.167 C 218.218 59.167,217.957 59.252,217.894 59.417 C 217.831 59.580,217.572 59.667,217.149 59.667 C 216.792 59.667,216.500 59.742,216.500 59.833 C 216.500 59.925,216.237 60.000,215.917 60.000 C 215.596 60.000,215.333 60.075,215.333 60.167 C 215.333 60.258,215.108 60.333,214.833 60.333 C 214.558 60.333,214.333 60.408,214.333 60.500 C 214.333 60.592,214.146 60.667,213.917 60.667 C 213.688 60.667,213.500 60.742,213.500 60.833 C 213.500 60.925,213.350 61.000,213.167 61.000 C 212.983 61.000,212.833 61.075,212.833 61.167 C 212.833 61.258,212.664 61.333,212.457 61.333 C 212.249 61.333,211.878 61.521,211.631 61.750 C 211.383 61.979,211.065 62.167,210.924 62.167 C 210.782 62.167,210.667 62.242,210.667 62.333 C 210.667 62.425,210.517 62.500,210.333 62.500 C 210.150 62.500,210.000 62.575,210.000 62.667 C 210.000 62.758,209.887 62.833,209.750 62.833 C 209.612 62.833,209.500 62.890,209.500 62.959 C 209.500 63.029,209.275 63.185,209.000 63.307 C 208.725 63.428,208.500 63.600,208.500 63.688 C 208.500 63.929,207.714 64.667,207.458 64.667 C 207.176 64.667,206.000 65.858,206.000 66.144 C 206.000 66.365,205.604 66.833,205.417 66.833 C 205.241 66.833,204.833 67.295,204.833 67.495 C 204.833 67.597,204.683 67.842,204.500 68.038 C 204.317 68.235,204.167 68.532,204.167 68.698 C 204.167 68.864,204.092 69.000,204.000 69.000 C 203.908 69.000,203.833 69.150,203.833 69.333 C 203.833 69.517,203.758 69.667,203.667 69.667 C 203.575 69.667,203.500 69.817,203.500 70.000 C 203.500 70.183,203.425 70.333,203.333 70.333 C 203.242 70.333,203.167 70.521,203.167 70.750 C 203.167 71.009,203.072 71.167,202.917 71.167 C 202.750 71.167,202.667 71.333,202.667 71.667 C 202.667 71.942,202.592 72.167,202.500 72.167 C 202.408 72.167,202.333 72.429,202.333 72.750 C 202.333 73.071,202.258 73.333,202.167 73.333 C 202.075 73.333,202.000 73.629,202.000 73.990 C 202.000 74.351,201.925 74.693,201.833 74.750 C 201.742 74.807,201.667 75.411,201.667 76.093 C 201.667 76.809,201.596 77.333,201.500 77.333 C 201.394 77.333,201.333 78.556,201.333 80.667 C 201.333 82.778,201.394 84.000,201.500 84.000 C 201.596 84.000,201.667 84.524,201.667 85.240 C 201.667 85.922,201.742 86.527,201.833 86.583 C 201.925 86.640,202.000 87.057,202.000 87.510 C 202.000 87.963,202.075 88.333,202.167 88.333 C 202.258 88.333,202.333 88.596,202.333 88.917 C 202.333 89.237,202.408 89.500,202.500 89.500 C 202.592 89.500,202.667 89.690,202.667 89.922 C 202.667 90.154,202.779 90.387,202.917 90.440 C 203.054 90.492,203.167 90.715,203.167 90.934 C 203.167 91.154,203.242 91.333,203.333 91.333 C 203.425 91.333,203.500 91.483,203.500 91.667 C 203.500 91.850,203.575 92.000,203.667 92.000 C 203.758 92.000,203.833 92.150,203.833 92.333 C 203.833 92.517,203.908 92.667,204.000 92.667 C 204.092 92.667,204.167 92.817,204.167 93.000 C 204.167 93.183,204.242 93.333,204.333 93.333 C 204.425 93.333,204.500 93.446,204.500 93.583 C 204.500 93.721,204.557 93.833,204.626 93.833 C 204.695 93.833,204.852 94.058,204.973 94.333 C 205.095 94.608,205.269 94.833,205.359 94.833 C 205.538 94.833,206.000 95.248,206.000 95.409 C 206.000 95.535,207.459 97.000,207.585 97.000 C 207.636 97.000,207.931 97.244,208.241 97.542 C 209.111 98.380,209.726 98.829,210.005 98.831 C 210.145 98.832,210.368 98.983,210.500 99.167 C 210.632 99.350,210.874 99.500,211.037 99.500 C 211.200 99.500,211.333 99.575,211.333 99.667 C 211.333 99.758,211.513 99.833,211.732 99.833 C 211.952 99.833,212.174 99.946,212.227 100.083 C 212.280 100.221,212.438 100.333,212.578 100.333 C 212.718 100.333,212.833 100.408,212.833 100.500 C 212.833 100.592,212.979 100.667,213.157 100.667 C 213.335 100.667,213.527 100.742,213.583 100.833 C 213.640 100.925,213.907 101.000,214.177 101.000 C 214.446 101.000,214.667 101.075,214.667 101.167 C 214.667 101.258,214.892 101.333,215.167 101.333 C 215.442 101.333,215.667 101.408,215.667 101.500 C 215.667 101.592,215.929 101.667,216.250 101.667 C 216.571 101.667,216.833 101.742,216.833 101.833 C 216.833 101.925,217.125 102.000,217.482 102.000 C 217.905 102.000,218.164 102.087,218.227 102.250 C 218.295 102.426,218.570 102.500,219.161 102.500 C 219.623 102.500,220.000 102.575,220.000 102.667 C 220.000 102.761,220.472 102.833,221.083 102.833 C 221.694 102.833,222.167 102.906,222.167 103.000 C 222.167 103.101,222.889 103.167,224.000 103.167 C 225.111 103.167,225.833 103.232,225.833 103.333 C 225.833 103.440,227.250 103.500,229.750 103.500 C 232.250 103.500,233.667 103.440,233.667 103.333 C 233.667 103.232,234.413 103.167,235.573 103.167 C 236.665 103.167,237.524 103.095,237.583 103.000 C 237.640 102.908,238.169 102.833,238.760 102.833 C 239.364 102.833,239.833 102.761,239.833 102.667 C 239.833 102.575,240.165 102.500,240.571 102.500 C 241.005 102.500,241.413 102.397,241.560 102.250 C 241.697 102.112,242.077 102.000,242.405 102.000 C 242.732 102.000,243.000 101.925,243.000 101.833 C 243.000 101.742,243.262 101.667,243.583 101.667 C 243.904 101.667,244.167 101.592,244.167 101.500 C 244.167 101.408,244.392 101.333,244.667 101.333 C 244.942 101.333,245.167 101.258,245.167 101.167 C 245.167 101.075,245.354 101.000,245.583 101.000 C 245.813 101.000,246.000 100.925,246.000 100.833 C 246.000 100.742,246.183 100.667,246.407 100.667 C 246.631 100.667,246.860 100.592,246.917 100.500 C 246.973 100.408,247.165 100.333,247.343 100.333 C 247.521 100.333,247.667 100.221,247.667 100.083 C 247.667 99.928,247.824 99.833,248.083 99.833 C 248.313 99.833,248.500 99.758,248.500 99.667 C 248.500 99.575,248.633 99.500,248.797 99.500 C 248.960 99.500,249.201 99.350,249.333 99.167 C 249.465 98.983,249.707 98.833,249.870 98.833 C 250.033 98.833,250.167 98.758,250.167 98.667 C 250.167 98.575,250.247 98.500,250.345 98.500 C 250.576 98.500,251.000 98.076,251.000 97.845 C 251.000 97.747,251.116 97.667,251.258 97.667 C 251.399 97.667,251.691 97.498,251.905 97.292 C 252.120 97.085,252.565 96.692,252.894 96.417 C 253.223 96.142,253.494 95.823,253.496 95.708 C 253.498 95.594,253.575 95.500,253.667 95.500 C 253.758 95.500,253.833 95.368,253.833 95.206 C 253.833 95.045,254.021 94.772,254.250 94.600 C 254.479 94.427,254.667 94.219,254.667 94.136 C 254.667 94.054,254.817 93.825,255.000 93.628 C 255.183 93.431,255.333 93.135,255.333 92.969 C 255.333 92.803,255.408 92.667,255.500 92.667 C 255.592 92.667,255.667 92.517,255.667 92.333 C 255.667 92.150,255.742 92.000,255.833 92.000 C 255.925 92.000,256.000 91.737,256.000 91.417 C 256.000 91.096,256.075 90.833,256.167 90.833 C 256.258 90.833,256.333 90.608,256.333 90.333 C 256.333 90.000,256.417 89.833,256.583 89.833 C 256.769 89.833,256.833 89.639,256.833 89.083 C 256.833 88.671,256.908 88.333,257.000 88.333 C 257.096 88.333,257.167 87.806,257.167 87.083 C 257.167 86.361,257.237 85.833,257.333 85.833 C 257.425 85.833,257.500 85.458,257.500 85.000 L 257.500 84.167 249.250 84.167 C 241.111 84.167,241.000 84.171,241.000 84.500 C 241.000 84.685,240.889 84.833,240.750 84.833 C 240.570 84.833,240.500 85.017,240.500 85.490 C 240.500 85.851,240.425 86.193,240.333 86.250 C 240.242 86.307,240.167 86.499,240.167 86.677 C 240.167 86.854,240.092 87.000,240.000 87.000 C 239.908 87.000,239.833 87.116,239.833 87.257 C 239.833 87.398,239.683 87.675,239.500 87.872 C 239.317 88.069,239.167 88.333,239.167 88.460 C 239.167 88.715,238.771 89.167,238.549 89.167 C 238.471 89.167,238.299 89.317,238.167 89.500 C 238.035 89.683,237.810 89.833,237.667 89.833 C 237.524 89.833,237.299 89.983,237.167 90.167 C 237.035 90.350,236.840 90.500,236.734 90.500 C 236.628 90.500,236.447 90.612,236.333 90.750 C 236.219 90.888,235.985 91.000,235.813 91.000 C 235.641 91.000,235.500 91.075,235.500 91.167 C 235.500 91.258,235.350 91.333,235.167 91.333 C 234.983 91.333,234.833 91.408,234.833 91.500 C 234.833 91.592,234.496 91.667,234.083 91.667 C 233.671 91.667,233.333 91.742,233.333 91.833 C 233.333 91.931,232.750 92.000,231.917 92.000 C 231.083 92.000,230.500 92.069,230.500 92.167 C 230.500 92.258,230.092 92.333,229.593 92.333 C 229.094 92.333,228.640 92.258,228.583 92.167 C 228.526 92.075,227.776 92.000,226.907 92.000 C 225.969 92.000,225.333 91.933,225.333 91.833 C 225.333 91.742,225.033 91.667,224.667 91.667 C 224.300 91.667,224.000 91.592,224.000 91.500 C 224.000 91.408,223.737 91.333,223.417 91.333 C 223.096 91.333,222.833 91.258,222.833 91.167 C 222.833 91.075,222.683 91.000,222.500 91.000 C 222.315 91.000,222.167 90.889,222.167 90.750 C 222.167 90.611,222.019 90.500,221.833 90.500 C 221.650 90.500,221.500 90.425,221.500 90.333 C 221.500 90.242,221.387 90.167,221.250 90.167 C 221.112 90.167,221.000 90.092,221.000 90.000 C 221.000 89.908,220.887 89.833,220.749 89.833 C 220.431 89.833,218.167 87.556,218.167 87.237 C 218.167 87.107,218.092 87.000,218.000 87.000 C 217.908 87.000,217.833 86.850,217.833 86.667 C 217.833 86.483,217.758 86.333,217.667 86.333 C 217.575 86.333,217.500 86.146,217.500 85.917 C 217.500 85.688,217.425 85.500,217.333 85.500 C 217.242 85.500,217.167 85.275,217.167 85.000 C 217.167 84.725,217.092 84.500,217.000 84.500 C 216.908 84.500,216.833 84.168,216.833 83.762 C 216.833 83.328,216.730 82.921,216.583 82.774 C 216.390 82.580,216.333 82.087,216.333 80.595 C 216.333 78.992,216.376 78.667,216.583 78.667 C 216.768 78.667,216.833 78.473,216.833 77.927 C 216.833 77.519,216.908 77.140,217.000 77.083 C 217.092 77.027,217.167 76.802,217.167 76.583 C 217.167 76.365,217.242 76.140,217.333 76.083 C 217.425 76.027,217.500 75.776,217.500 75.527 C 217.500 75.265,217.641 74.972,217.833 74.833 C 218.017 74.701,218.167 74.499,218.167 74.383 C 218.167 74.142,220.747 71.500,220.983 71.500 C 221.220 71.500,222.164 70.934,222.166 70.792 C 222.166 70.723,222.317 70.667,222.500 70.667 C 222.683 70.667,222.833 70.592,222.833 70.500 C 222.833 70.408,223.021 70.333,223.250 70.333 C 223.479 70.333,223.667 70.258,223.667 70.167 C 223.667 70.075,223.967 70.000,224.333 70.000 C 224.700 70.000,225.000 69.925,225.000 69.833 C 225.000 69.739,225.472 69.667,226.083 69.667 C 226.694 69.667,227.167 69.594,227.167 69.500 C 227.167 69.397,227.997 69.333,229.323 69.333 C 230.582 69.333,231.523 69.403,231.583 69.500 C 231.640 69.592,232.132 69.667,232.677 69.667 C 233.226 69.667,233.667 69.741,233.667 69.833 C 233.667 69.925,233.929 70.000,234.250 70.000 C 234.571 70.000,234.833 70.075,234.833 70.167 C 234.833 70.258,235.058 70.333,235.333 70.333 C 235.608 70.333,235.833 70.408,235.833 70.500 C 235.833 70.592,236.021 70.667,236.250 70.667 C 236.479 70.667,236.667 70.747,236.667 70.845 C 236.667 71.075,237.090 71.500,237.320 71.500 C 237.640 71.500,239.500 73.195,239.500 73.487 C 239.500 73.586,239.575 73.667,239.667 73.667 C 239.758 73.667,239.833 73.800,239.833 73.963 C 239.833 74.126,239.983 74.368,240.167 74.500 C 240.364 74.642,240.500 74.931,240.500 75.209 C 240.500 75.471,240.610 75.719,240.750 75.773 C 240.887 75.826,241.000 76.011,241.000 76.184 C 241.000 76.490,241.263 76.500,249.083 76.500 L 257.167 76.500 257.167 74.843 C 257.167 73.918,257.093 73.141,257.000 73.083 C 256.908 73.027,256.833 72.682,256.833 72.318 C 256.833 71.884,256.747 71.623,256.583 71.560 C 256.429 71.501,256.333 71.248,256.333 70.899 C 256.333 70.588,256.258 70.333,256.167 70.333 C 256.075 70.333,256.000 70.108,256.000 69.833 C 256.000 69.558,255.925 69.333,255.833 69.333 C 255.742 69.333,255.667 69.183,255.667 69.000 C 255.667 68.817,255.592 68.667,255.500 68.667 C 255.408 68.667,255.333 68.554,255.333 68.417 C 255.333 68.279,255.258 68.167,255.167 68.167 C 255.075 68.167,255.000 68.051,255.000 67.910 C 255.000 67.631,254.867 67.447,254.042 66.580 C 253.744 66.267,253.500 65.969,253.500 65.917 C 253.500 65.775,252.364 64.667,252.214 64.662 C 252.142 64.660,251.790 64.322,251.431 63.912 C 251.073 63.502,250.679 63.167,250.556 63.167 C 250.434 63.167,250.333 63.092,250.333 63.000 C 250.333 62.908,250.221 62.833,250.083 62.833 C 249.946 62.833,249.833 62.758,249.833 62.667 C 249.833 62.575,249.683 62.500,249.500 62.500 C 249.317 62.500,249.167 62.425,249.167 62.333 C 249.167 62.242,249.044 62.167,248.895 62.167 C 248.745 62.167,248.501 62.030,248.353 61.863 C 248.019 61.486,247.054 61.000,246.641 61.000 C 246.472 61.000,246.333 60.925,246.333 60.833 C 246.333 60.742,246.188 60.667,246.010 60.667 C 245.832 60.667,245.640 60.592,245.583 60.500 C 245.527 60.408,245.260 60.333,244.990 60.333 C 244.721 60.333,244.500 60.258,244.500 60.167 C 244.500 60.075,244.279 60.000,244.010 60.000 C 243.740 60.000,243.473 59.925,243.417 59.833 C 243.360 59.742,243.026 59.667,242.675 59.667 C 242.260 59.667,242.002 59.579,241.940 59.417 C 241.877 59.253,241.616 59.167,241.182 59.167 C 240.818 59.167,240.473 59.092,240.417 59.000 C 240.360 58.908,239.868 58.833,239.323 58.833 C 238.774 58.833,238.333 58.759,238.333 58.667 C 238.333 58.567,237.694 58.500,236.750 58.500 C 235.806 58.500,235.167 58.433,235.167 58.333 C 235.167 58.226,233.250 58.167,229.750 58.167 C 226.250 58.167,224.333 58.226,224.333 58.333 M352.667 58.333 C 352.667 58.434,351.944 58.500,350.833 58.500 C 349.722 58.500,349.000 58.566,349.000 58.667 C 349.000 58.761,348.528 58.833,347.917 58.833 C 347.306 58.833,346.833 58.906,346.833 59.000 C 346.833 59.092,346.456 59.167,345.995 59.167 C 345.403 59.167,345.128 59.240,345.060 59.417 C 344.998 59.580,344.738 59.667,344.316 59.667 C 343.959 59.667,343.667 59.742,343.667 59.833 C 343.667 59.925,343.404 60.000,343.083 60.000 C 342.762 60.000,342.500 60.075,342.500 60.167 C 342.500 60.258,342.275 60.333,342.000 60.333 C 341.725 60.333,341.500 60.408,341.500 60.500 C 341.500 60.592,341.279 60.667,341.010 60.667 C 340.740 60.667,340.473 60.742,340.417 60.833 C 340.360 60.925,340.200 61.000,340.062 61.000 C 339.923 61.000,339.705 61.094,339.577 61.208 C 339.026 61.703,338.837 61.833,338.674 61.833 C 338.578 61.833,338.500 61.908,338.500 62.000 C 338.500 62.092,338.386 62.167,338.246 62.167 C 337.963 62.167,336.500 63.560,336.500 63.829 C 336.500 63.923,336.422 64.000,336.326 64.000 C 336.058 64.000,335.333 64.786,335.333 65.076 C 335.333 65.217,335.258 65.333,335.167 65.333 C 335.075 65.333,335.000 65.521,335.000 65.750 C 335.000 65.979,334.925 66.167,334.833 66.167 C 334.742 66.167,334.667 66.317,334.667 66.500 C 334.667 66.683,334.592 66.833,334.500 66.833 C 334.408 66.833,334.333 67.050,334.333 67.316 C 334.333 67.590,334.226 67.839,334.083 67.894 C 333.907 67.961,333.833 68.236,333.833 68.828 C 333.833 69.289,333.758 69.667,333.667 69.667 C 333.563 69.667,333.500 70.611,333.500 72.167 C 333.500 73.722,333.563 74.667,333.667 74.667 C 333.758 74.667,333.833 74.999,333.833 75.405 C 333.833 75.839,333.936 76.246,334.083 76.393 C 334.221 76.530,334.333 76.836,334.333 77.071 C 334.333 77.307,334.408 77.500,334.500 77.500 C 334.592 77.500,334.667 77.688,334.667 77.917 C 334.667 78.146,334.742 78.333,334.833 78.333 C 334.925 78.333,335.000 78.453,335.000 78.600 C 335.000 78.746,335.225 79.076,335.500 79.333 C 335.775 79.590,336.000 79.904,336.000 80.030 C 336.000 80.289,336.577 80.833,336.852 80.833 C 336.951 80.833,337.243 81.058,337.500 81.333 C 337.757 81.608,338.079 81.833,338.216 81.833 C 338.352 81.833,338.508 81.946,338.560 82.083 C 338.613 82.221,338.809 82.333,338.995 82.333 C 339.181 82.333,339.333 82.408,339.333 82.500 C 339.333 82.592,339.483 82.667,339.667 82.667 C 339.850 82.667,340.000 82.742,340.000 82.833 C 340.000 82.925,340.188 83.000,340.417 83.000 C 340.646 83.000,340.833 83.075,340.833 83.167 C 340.833 83.258,341.058 83.333,341.333 83.333 C 341.608 83.333,341.833 83.408,341.833 83.500 C 341.833 83.592,342.171 83.667,342.583 83.667 C 342.996 83.667,343.333 83.742,343.333 83.833 C 343.333 83.925,343.625 84.000,343.982 84.000 C 344.405 84.000,344.664 84.087,344.727 84.250 C 344.797 84.434,345.087 84.500,345.818 84.500 C 346.366 84.500,346.860 84.575,346.917 84.667 C 346.974 84.759,347.724 84.833,348.593 84.833 C 349.531 84.833,350.167 84.901,350.167 85.000 C 350.167 85.100,350.858 85.167,351.907 85.167 C 352.887 85.167,353.692 85.239,353.750 85.333 C 353.808 85.427,354.613 85.500,355.593 85.500 C 356.642 85.500,357.333 85.566,357.333 85.667 C 357.333 85.768,358.056 85.833,359.167 85.833 C 360.278 85.833,361.000 85.899,361.000 86.000 C 361.000 86.100,361.689 86.167,362.732 86.167 C 364.118 86.167,364.484 86.217,364.560 86.417 C 364.628 86.593,364.902 86.667,365.485 86.667 C 365.941 86.667,366.360 86.742,366.417 86.833 C 366.473 86.925,366.698 87.000,366.917 87.000 C 367.135 87.000,367.360 87.075,367.417 87.167 C 367.473 87.258,367.630 87.333,367.765 87.333 C 369.249 87.333,369.707 90.302,368.421 91.588 C 368.011 91.998,367.565 92.333,367.431 92.333 C 367.296 92.333,367.140 92.408,367.083 92.500 C 367.027 92.592,366.795 92.667,366.568 92.667 C 366.342 92.667,366.113 92.779,366.060 92.917 C 365.995 93.086,365.729 93.167,365.232 93.167 C 364.829 93.167,364.500 93.242,364.500 93.333 C 364.500 93.436,363.616 93.500,362.181 93.500 C 360.477 93.500,359.841 93.555,359.785 93.708 C 359.724 93.875,359.664 93.875,359.487 93.708 C 359.334 93.563,358.594 93.500,357.050 93.500 C 355.683 93.500,354.833 93.436,354.833 93.333 C 354.833 93.242,354.496 93.167,354.083 93.167 C 353.528 93.167,353.333 93.102,353.333 92.917 C 353.333 92.751,353.168 92.667,352.843 92.667 C 352.574 92.667,352.307 92.592,352.250 92.500 C 352.193 92.408,352.001 92.333,351.823 92.333 C 351.646 92.333,351.500 92.258,351.500 92.167 C 351.500 92.075,351.380 92.000,351.234 92.000 C 351.087 92.000,350.757 91.775,350.500 91.500 C 350.243 91.225,349.951 91.000,349.850 91.000 C 349.749 91.000,349.667 90.888,349.667 90.750 C 349.667 90.612,349.592 90.500,349.500 90.500 C 349.408 90.500,349.333 90.350,349.333 90.167 C 349.333 89.983,349.258 89.833,349.167 89.833 C 349.075 89.833,349.000 89.608,349.000 89.333 C 349.000 89.058,348.925 88.833,348.833 88.833 C 348.742 88.833,348.667 88.603,348.667 88.321 C 348.667 87.301,348.942 87.333,340.345 87.333 L 332.500 87.333 332.500 88.417 C 332.500 89.028,332.573 89.500,332.667 89.500 C 332.763 89.500,332.833 90.028,332.833 90.750 C 332.833 91.472,332.904 92.000,333.000 92.000 C 333.092 92.000,333.167 92.225,333.167 92.500 C 333.167 92.775,333.242 93.000,333.333 93.000 C 333.425 93.000,333.500 93.263,333.500 93.583 C 333.500 93.904,333.575 94.167,333.667 94.167 C 333.758 94.167,333.833 94.317,333.833 94.500 C 333.833 94.685,333.944 94.833,334.083 94.833 C 334.239 94.833,334.333 94.991,334.333 95.250 C 334.333 95.479,334.408 95.667,334.500 95.667 C 334.592 95.667,334.667 95.800,334.667 95.963 C 334.667 96.126,334.817 96.368,335.000 96.500 C 335.183 96.632,335.333 96.837,335.333 96.956 C 335.333 97.233,336.937 98.833,337.215 98.833 C 337.331 98.833,337.535 98.983,337.667 99.167 C 337.799 99.350,338.040 99.500,338.203 99.500 C 338.367 99.500,338.500 99.575,338.500 99.667 C 338.500 99.758,338.604 99.833,338.732 99.833 C 338.860 99.833,339.008 99.946,339.060 100.083 C 339.113 100.221,339.271 100.333,339.411 100.333 C 339.552 100.333,339.667 100.408,339.667 100.500 C 339.667 100.592,339.817 100.667,340.000 100.667 C 340.183 100.667,340.333 100.742,340.333 100.833 C 340.333 100.925,340.521 101.000,340.750 101.000 C 340.979 101.000,341.167 101.075,341.167 101.167 C 341.167 101.258,341.392 101.333,341.667 101.333 C 341.942 101.333,342.167 101.408,342.167 101.500 C 342.167 101.592,342.429 101.667,342.750 101.667 C 343.071 101.667,343.333 101.742,343.333 101.833 C 343.333 101.925,343.601 102.000,343.929 102.000 C 344.256 102.000,344.636 102.112,344.774 102.250 C 344.935 102.411,345.347 102.500,345.929 102.500 C 346.426 102.500,346.833 102.575,346.833 102.667 C 346.833 102.763,347.361 102.833,348.083 102.833 C 348.806 102.833,349.333 102.904,349.333 103.000 C 349.333 103.103,350.219 103.167,351.657 103.167 C 353.026 103.167,354.023 103.235,354.083 103.333 C 354.148 103.438,355.974 103.500,359.010 103.500 C 362.114 103.500,363.833 103.441,363.833 103.333 C 363.833 103.229,364.802 103.167,366.407 103.167 C 367.943 103.167,369.022 103.099,369.083 103.000 C 369.140 102.908,369.744 102.833,370.427 102.833 C 371.142 102.833,371.667 102.763,371.667 102.667 C 371.667 102.575,372.074 102.500,372.571 102.500 C 373.153 102.500,373.565 102.411,373.726 102.250 C 373.867 102.110,374.274 102.000,374.655 102.000 C 375.028 102.000,375.333 101.925,375.333 101.833 C 375.333 101.742,375.558 101.667,375.833 101.667 C 376.108 101.667,376.333 101.592,376.333 101.500 C 376.333 101.408,376.596 101.333,376.917 101.333 C 377.238 101.333,377.500 101.258,377.500 101.167 C 377.500 101.075,377.650 101.000,377.833 101.000 C 378.017 101.000,378.167 100.925,378.167 100.833 C 378.167 100.742,378.373 100.664,378.625 100.661 C 379.125 100.656,379.667 100.324,379.667 100.023 C 379.667 99.919,379.800 99.833,379.963 99.833 C 380.126 99.833,380.368 99.683,380.500 99.500 C 380.632 99.317,380.876 99.167,381.042 99.167 C 381.314 99.167,382.500 98.149,382.500 97.917 C 382.500 97.865,382.744 97.566,383.042 97.254 C 383.867 96.387,384.000 96.202,384.000 95.924 C 384.000 95.782,384.075 95.667,384.167 95.667 C 384.258 95.667,384.333 95.479,384.333 95.250 C 384.333 95.021,384.408 94.833,384.500 94.833 C 384.592 94.833,384.667 94.683,384.667 94.500 C 384.667 94.317,384.742 94.167,384.833 94.167 C 384.925 94.167,385.000 93.829,385.000 93.417 C 385.000 93.004,385.075 92.667,385.167 92.667 C 385.273 92.667,385.333 91.250,385.333 88.750 C 385.333 86.250,385.273 84.833,385.167 84.833 C 385.075 84.833,385.000 84.571,385.000 84.250 C 385.000 83.929,384.925 83.667,384.833 83.667 C 384.742 83.667,384.667 83.442,384.667 83.167 C 384.667 82.892,384.592 82.667,384.500 82.667 C 384.408 82.667,384.333 82.517,384.333 82.333 C 384.333 82.150,384.258 82.000,384.167 82.000 C 384.075 82.000,383.998 81.869,383.995 81.708 C 383.989 81.396,383.624 80.833,383.428 80.833 C 383.227 80.833,382.833 80.369,382.833 80.132 C 382.833 80.008,382.673 79.797,382.477 79.662 C 382.281 79.527,381.947 79.248,381.735 79.042 C 381.522 78.835,381.270 78.667,381.174 78.667 C 381.078 78.667,381.000 78.592,381.000 78.500 C 381.000 78.408,380.867 78.333,380.703 78.333 C 380.540 78.333,380.299 78.183,380.167 78.000 C 380.035 77.817,379.825 77.667,379.701 77.667 C 379.577 77.667,379.364 77.554,379.226 77.417 C 379.089 77.279,378.794 77.167,378.571 77.167 C 378.349 77.167,378.167 77.092,378.167 77.000 C 378.167 76.908,377.942 76.833,377.667 76.833 C 377.392 76.833,377.167 76.758,377.167 76.667 C 377.167 76.575,376.904 76.500,376.583 76.500 C 376.262 76.500,376.000 76.425,376.000 76.333 C 376.000 76.242,375.662 76.167,375.250 76.167 C 374.837 76.167,374.500 76.092,374.500 76.000 C 374.500 75.904,373.972 75.833,373.250 75.833 C 372.528 75.833,372.000 75.763,372.000 75.667 C 372.000 75.565,371.250 75.500,370.083 75.500 C 368.917 75.500,368.167 75.435,368.167 75.333 C 368.167 75.232,367.395 75.167,366.184 75.167 C 364.576 75.167,364.184 75.119,364.106 74.917 C 364.028 74.713,363.625 74.667,361.922 74.667 C 360.641 74.667,359.833 74.602,359.833 74.500 C 359.833 74.398,359.056 74.333,357.833 74.333 C 356.611 74.333,355.833 74.269,355.833 74.167 C 355.833 74.067,355.194 74.000,354.250 74.000 C 353.306 74.000,352.667 73.933,352.667 73.833 C 352.667 73.742,352.404 73.667,352.083 73.667 C 351.762 73.667,351.500 73.592,351.500 73.500 C 351.500 73.408,351.313 73.333,351.083 73.333 C 350.293 73.333,349.333 72.145,349.333 71.167 C 349.333 70.708,349.408 70.333,349.500 70.333 C 349.592 70.333,349.667 70.183,349.667 70.000 C 349.667 69.815,349.778 69.667,349.917 69.667 C 350.054 69.667,350.167 69.592,350.167 69.500 C 350.167 69.408,350.265 69.333,350.385 69.333 C 350.505 69.333,350.765 69.183,350.962 69.000 C 351.158 68.817,351.512 68.667,351.748 68.667 C 351.984 68.667,352.220 68.554,352.273 68.417 C 352.340 68.242,352.613 68.167,353.184 68.167 C 353.633 68.167,354.000 68.092,354.000 68.000 C 354.000 67.894,355.444 67.833,358.000 67.833 C 360.556 67.833,362.000 67.894,362.000 68.000 C 362.000 68.092,362.404 68.167,362.899 68.167 C 363.544 68.167,363.825 68.237,363.894 68.417 C 363.946 68.554,364.179 68.667,364.411 68.667 C 364.643 68.667,364.833 68.742,364.833 68.833 C 364.833 68.925,365.021 69.000,365.250 69.000 C 365.479 69.000,365.667 69.075,365.667 69.167 C 365.667 69.258,365.785 69.333,365.930 69.333 C 366.074 69.333,366.481 69.633,366.833 70.000 C 367.186 70.367,367.555 70.667,367.654 70.667 C 367.752 70.667,367.833 70.854,367.833 71.083 C 367.833 71.313,367.908 71.500,368.000 71.500 C 368.092 71.500,368.167 71.800,368.167 72.167 L 368.167 72.833 376.083 72.833 L 384.000 72.833 384.000 71.083 C 384.000 70.028,383.934 69.333,383.833 69.333 C 383.742 69.333,383.667 69.031,383.667 68.661 C 383.667 68.218,383.582 67.957,383.417 67.894 C 383.274 67.839,383.167 67.590,383.167 67.316 C 383.167 67.050,383.092 66.833,383.000 66.833 C 382.908 66.833,382.833 66.683,382.833 66.500 C 382.833 66.317,382.758 66.167,382.667 66.167 C 382.575 66.167,382.500 66.028,382.500 65.858 C 382.500 65.688,382.275 65.314,382.000 65.026 C 381.725 64.738,381.500 64.390,381.500 64.252 C 381.500 64.113,381.387 64.000,381.250 64.000 C 381.113 64.000,381.000 63.922,381.000 63.826 C 381.000 63.576,380.223 62.833,379.961 62.833 C 379.840 62.833,379.632 62.683,379.500 62.500 C 379.368 62.317,379.164 62.167,379.047 62.167 C 378.929 62.167,378.833 62.092,378.833 62.000 C 378.833 61.908,378.691 61.833,378.518 61.833 C 378.344 61.833,378.159 61.721,378.106 61.583 C 378.054 61.446,377.896 61.333,377.755 61.333 C 377.615 61.333,377.500 61.258,377.500 61.167 C 377.500 61.075,377.354 61.000,377.177 61.000 C 376.999 61.000,376.807 60.925,376.750 60.833 C 376.693 60.742,376.426 60.667,376.157 60.667 C 375.887 60.667,375.667 60.592,375.667 60.500 C 375.667 60.408,375.521 60.333,375.343 60.333 C 375.165 60.333,374.973 60.258,374.917 60.167 C 374.860 60.075,374.518 60.000,374.157 60.000 C 373.796 60.000,373.500 59.925,373.500 59.833 C 373.500 59.742,373.162 59.667,372.750 59.667 C 372.194 59.667,372.000 59.602,372.000 59.417 C 372.000 59.237,371.816 59.167,371.343 59.167 C 370.982 59.167,370.640 59.092,370.583 59.000 C 370.527 58.908,369.960 58.833,369.323 58.833 C 368.663 58.833,368.167 58.762,368.167 58.667 C 368.167 58.567,367.500 58.500,366.500 58.500 C 365.500 58.500,364.833 58.433,364.833 58.333 C 364.833 58.225,362.694 58.167,358.750 58.167 C 354.806 58.167,352.667 58.225,352.667 58.333 M142.833 80.833 L 142.833 102.000 149.499 102.000 L 156.165 102.000 156.207 89.144 L 156.250 76.288 156.792 76.794 C 157.090 77.073,157.333 77.366,157.333 77.447 C 157.333 77.527,157.483 77.701,157.667 77.833 C 157.850 77.965,158.000 78.157,158.000 78.260 C 158.000 78.362,158.335 78.739,158.745 79.098 C 159.155 79.457,159.493 79.816,159.495 79.897 C 159.498 79.978,159.632 80.166,159.793 80.314 C 159.954 80.462,160.192 80.790,160.321 81.042 C 160.450 81.294,160.624 81.500,160.707 81.500 C 160.882 81.500,161.333 81.924,161.333 82.088 C 161.333 82.149,161.558 82.410,161.833 82.667 C 162.108 82.924,162.333 83.222,162.333 83.329 C 162.333 83.573,162.750 84.000,162.988 84.000 C 163.086 84.000,163.167 84.081,163.167 84.180 C 163.167 84.279,163.467 84.648,163.833 85.000 C 164.200 85.352,164.500 85.734,164.500 85.848 C 164.500 85.962,164.987 86.526,165.583 87.102 C 166.179 87.677,166.667 88.233,166.667 88.338 C 166.667 88.442,167.154 89.005,167.750 89.589 C 168.346 90.174,168.833 90.742,168.833 90.853 C 168.833 90.964,169.321 91.526,169.917 92.102 C 170.512 92.677,171.000 93.254,171.000 93.383 C 171.000 93.511,171.412 93.995,171.917 94.456 C 172.421 94.918,172.833 95.379,172.833 95.481 C 172.833 95.583,172.908 95.667,173.000 95.667 C 173.092 95.667,173.167 95.768,173.167 95.892 C 173.167 96.016,173.579 96.495,174.083 96.956 C 174.588 97.418,175.000 97.879,175.000 97.981 C 175.000 98.083,175.075 98.167,175.167 98.167 C 175.258 98.167,175.333 98.276,175.333 98.409 C 175.333 98.635,176.075 99.500,176.269 99.500 C 176.411 99.500,176.833 99.963,176.833 100.118 C 176.833 100.196,176.983 100.368,177.167 100.500 C 177.350 100.632,177.500 100.840,177.500 100.961 C 177.500 101.082,177.684 101.366,177.909 101.591 L 178.318 102.000 186.326 102.000 L 194.333 102.000 194.333 80.833 L 194.333 59.667 187.750 59.667 L 181.167 59.667 181.147 72.625 C 181.137 79.752,181.091 85.437,181.045 85.258 C 181.000 85.079,180.746 84.730,180.481 84.482 C 180.217 84.235,180.000 83.986,180.000 83.928 C 180.000 83.870,179.756 83.564,179.458 83.247 C 178.476 82.205,178.167 81.846,178.167 81.752 C 178.167 81.700,177.848 81.324,177.458 80.916 C 176.366 79.771,176.000 79.354,176.000 79.252 C 176.000 79.200,175.662 78.820,175.250 78.408 C 174.838 77.995,174.500 77.600,174.500 77.528 C 174.500 77.457,174.050 76.931,173.500 76.361 C 172.950 75.790,172.500 75.252,172.500 75.167 C 172.500 75.081,171.900 74.406,171.167 73.667 C 170.433 72.927,169.833 72.244,169.833 72.148 C 169.833 72.052,169.533 71.686,169.167 71.333 C 168.800 70.981,168.500 70.644,168.500 70.584 C 168.500 70.411,168.040 70.000,167.845 70.000 C 167.747 70.000,167.667 69.880,167.667 69.734 C 167.667 69.587,167.442 69.257,167.167 69.000 C 166.892 68.743,166.667 68.486,166.667 68.428 C 166.667 68.370,166.423 68.063,166.125 67.745 C 164.692 66.219,164.500 66.003,164.500 65.916 C 164.500 65.864,164.256 65.564,163.958 65.247 C 162.976 64.205,162.667 63.846,162.667 63.752 C 162.667 63.700,162.348 63.324,161.958 62.916 C 160.866 61.771,160.500 61.354,160.500 61.252 C 160.500 61.200,160.164 60.822,159.754 60.412 L 159.009 59.667 150.921 59.667 L 142.833 59.667 142.833 80.833 M264.333 80.832 L 264.333 102.000 271.000 102.000 L 277.667 102.000 277.667 87.833 C 277.667 78.500,277.724 73.667,277.833 73.667 C 277.925 73.667,278.000 73.817,278.000 74.000 C 278.000 74.183,278.075 74.333,278.167 74.333 C 278.258 74.333,278.333 74.512,278.333 74.730 C 278.333 74.948,278.446 75.219,278.583 75.333 C 278.721 75.447,278.833 75.682,278.833 75.854 C 278.833 76.026,278.908 76.167,279.000 76.167 C 279.092 76.167,279.167 76.392,279.167 76.667 C 279.167 76.942,279.242 77.167,279.333 77.167 C 279.425 77.167,279.500 77.354,279.500 77.583 C 279.500 77.813,279.575 78.000,279.667 78.000 C 279.758 78.000,279.833 78.150,279.833 78.333 C 279.833 78.517,279.908 78.667,280.000 78.667 C 280.092 78.667,280.167 78.892,280.167 79.167 C 280.167 79.442,280.242 79.667,280.333 79.667 C 280.425 79.667,280.500 79.819,280.500 80.005 C 280.500 80.191,280.612 80.387,280.750 80.440 C 280.887 80.492,281.000 80.678,281.000 80.851 C 281.000 81.025,281.075 81.167,281.167 81.167 C 281.258 81.167,281.333 81.387,281.333 81.657 C 281.333 81.926,281.408 82.193,281.500 82.250 C 281.592 82.307,281.667 82.499,281.667 82.677 C 281.667 82.854,281.742 83.000,281.833 83.000 C 281.925 83.000,282.000 83.225,282.000 83.500 C 282.000 83.775,282.075 84.000,282.167 84.000 C 282.258 84.000,282.333 84.188,282.333 84.417 C 282.333 84.646,282.408 84.833,282.500 84.833 C 282.592 84.833,282.667 84.983,282.667 85.167 C 282.667 85.352,282.778 85.500,282.917 85.500 C 283.091 85.500,283.167 85.676,283.167 86.083 C 283.167 86.404,283.242 86.667,283.333 86.667 C 283.425 86.667,283.500 86.817,283.500 87.000 C 283.500 87.183,283.575 87.333,283.667 87.333 C 283.758 87.333,283.833 87.558,283.833 87.833 C 283.833 88.108,283.908 88.333,284.000 88.333 C 284.092 88.333,284.167 88.479,284.167 88.657 C 284.167 88.835,284.242 89.027,284.333 89.083 C 284.425 89.140,284.500 89.332,284.500 89.510 C 284.500 89.688,284.575 89.833,284.667 89.833 C 284.758 89.833,284.833 90.058,284.833 90.333 C 284.833 90.608,284.908 90.833,285.000 90.833 C 285.092 90.833,285.167 90.986,285.167 91.172 C 285.167 91.358,285.279 91.554,285.417 91.606 C 285.559 91.661,285.667 91.910,285.667 92.184 C 285.667 92.450,285.742 92.667,285.833 92.667 C 285.925 92.667,286.000 92.854,286.000 93.083 C 286.000 93.313,286.075 93.500,286.167 93.500 C 286.258 93.500,286.333 93.650,286.333 93.833 C 286.333 94.017,286.408 94.167,286.500 94.167 C 286.592 94.167,286.667 94.392,286.667 94.667 C 286.667 94.942,286.742 95.167,286.833 95.167 C 286.925 95.167,287.000 95.354,287.000 95.583 C 287.000 95.813,287.075 96.000,287.167 96.000 C 287.258 96.000,287.333 96.145,287.333 96.321 C 287.333 96.498,287.446 96.755,287.583 96.893 C 287.721 97.030,287.833 97.261,287.833 97.405 C 287.833 97.549,287.908 97.667,288.000 97.667 C 288.092 97.667,288.167 97.854,288.167 98.083 C 288.167 98.313,288.242 98.500,288.333 98.500 C 288.425 98.500,288.500 98.725,288.500 99.000 C 288.500 99.275,288.575 99.500,288.667 99.500 C 288.758 99.500,288.833 99.646,288.833 99.823 C 288.833 100.001,288.908 100.193,289.000 100.250 C 289.092 100.307,289.167 100.487,289.167 100.651 C 289.167 100.815,289.285 101.185,289.429 101.474 L 289.691 102.000 295.107 102.000 C 300.976 102.000,301.000 101.996,301.000 101.095 C 301.000 100.825,301.093 100.667,301.250 100.667 C 301.406 100.667,301.500 100.509,301.500 100.250 C 301.500 100.021,301.575 99.833,301.667 99.833 C 301.758 99.833,301.833 99.608,301.833 99.333 C 301.833 99.058,301.908 98.833,302.000 98.833 C 302.092 98.833,302.167 98.688,302.167 98.510 C 302.167 98.332,302.242 98.140,302.333 98.083 C 302.425 98.027,302.500 97.835,302.500 97.657 C 302.500 97.479,302.575 97.333,302.667 97.333 C 302.758 97.333,302.833 97.108,302.833 96.833 C 302.833 96.558,302.908 96.333,303.000 96.333 C 303.092 96.333,303.167 96.191,303.167 96.018 C 303.167 95.844,303.279 95.659,303.417 95.606 C 303.563 95.550,303.667 95.301,303.667 95.005 C 303.667 94.727,303.742 94.500,303.833 94.500 C 303.925 94.500,304.000 94.350,304.000 94.167 C 304.000 93.983,304.075 93.833,304.167 93.833 C 304.258 93.833,304.333 93.646,304.333 93.417 C 304.333 93.188,304.408 93.000,304.500 93.000 C 304.592 93.000,304.667 92.775,304.667 92.500 C 304.667 92.225,304.742 92.000,304.833 92.000 C 304.925 92.000,305.000 91.813,305.000 91.583 C 305.000 91.354,305.075 91.167,305.167 91.167 C 305.258 91.167,305.333 90.942,305.333 90.667 C 305.333 90.333,305.417 90.167,305.583 90.167 C 305.721 90.167,305.833 90.021,305.833 89.843 C 305.833 89.665,305.908 89.473,306.000 89.417 C 306.092 89.360,306.167 89.093,306.167 88.823 C 306.167 88.554,306.242 88.333,306.333 88.333 C 306.425 88.333,306.500 88.183,306.500 88.000 C 306.500 87.817,306.575 87.667,306.667 87.667 C 306.758 87.667,306.833 87.521,306.833 87.343 C 306.833 87.165,306.908 86.973,307.000 86.917 C 307.092 86.860,307.167 86.593,307.167 86.323 C 307.167 86.054,307.242 85.833,307.333 85.833 C 307.425 85.833,307.500 85.691,307.500 85.518 C 307.500 85.344,307.612 85.159,307.750 85.106 C 307.896 85.050,308.000 84.801,308.000 84.505 C 308.000 84.227,308.075 84.000,308.167 84.000 C 308.258 84.000,308.333 83.850,308.333 83.667 C 308.333 83.483,308.408 83.333,308.500 83.333 C 308.592 83.333,308.667 83.188,308.667 83.010 C 308.667 82.832,308.742 82.640,308.833 82.583 C 308.925 82.527,309.000 82.260,309.000 81.990 C 309.000 81.721,309.075 81.500,309.167 81.500 C 309.258 81.500,309.333 81.350,309.333 81.167 C 309.333 80.983,309.408 80.833,309.500 80.833 C 309.592 80.833,309.667 80.571,309.667 80.250 C 309.667 79.843,309.742 79.667,309.917 79.667 C 310.056 79.667,310.167 79.519,310.167 79.333 C 310.167 79.150,310.242 79.000,310.333 79.000 C 310.425 79.000,310.500 78.775,310.500 78.500 C 310.500 78.225,310.575 78.000,310.667 78.000 C 310.758 78.000,310.833 77.813,310.833 77.583 C 310.833 77.354,310.908 77.167,311.000 77.167 C 311.092 77.167,311.167 77.017,311.167 76.833 C 311.167 76.650,311.242 76.500,311.333 76.500 C 311.425 76.500,311.500 76.275,311.500 76.000 C 311.500 75.725,311.575 75.500,311.667 75.500 C 311.758 75.500,311.833 75.321,311.833 75.101 C 311.833 74.882,311.946 74.659,312.083 74.606 C 312.221 74.554,312.333 74.321,312.333 74.089 C 312.333 73.857,312.408 73.667,312.500 73.667 C 312.610 73.667,312.667 78.500,312.667 87.833 L 312.667 102.000 319.500 102.000 L 326.333 102.000 326.333 80.833 L 326.333 59.667 315.571 59.667 C 303.892 59.667,304.333 59.631,304.333 60.571 C 304.333 60.807,304.258 61.000,304.167 61.000 C 304.075 61.000,304.000 61.188,304.000 61.417 C 304.000 61.646,303.925 61.833,303.833 61.833 C 303.742 61.833,303.667 62.058,303.667 62.333 C 303.667 62.608,303.592 62.833,303.500 62.833 C 303.408 62.833,303.333 63.096,303.333 63.417 C 303.333 63.824,303.258 64.000,303.083 64.000 C 302.944 64.000,302.833 64.148,302.833 64.333 C 302.833 64.517,302.758 64.667,302.667 64.667 C 302.575 64.667,302.500 64.892,302.500 65.167 C 302.500 65.442,302.425 65.667,302.333 65.667 C 302.242 65.667,302.167 65.854,302.167 66.083 C 302.167 66.313,302.092 66.500,302.000 66.500 C 301.908 66.500,301.833 66.725,301.833 67.000 C 301.833 67.275,301.758 67.500,301.667 67.500 C 301.575 67.500,301.500 67.762,301.500 68.083 C 301.500 68.404,301.425 68.667,301.333 68.667 C 301.242 68.667,301.167 68.785,301.167 68.929 C 301.167 69.073,301.054 69.303,300.917 69.440 C 300.779 69.578,300.667 69.831,300.667 70.002 C 300.667 70.173,300.592 70.360,300.500 70.417 C 300.408 70.473,300.333 70.665,300.333 70.843 C 300.333 71.021,300.258 71.167,300.167 71.167 C 300.075 71.167,300.000 71.392,300.000 71.667 C 300.000 71.942,299.925 72.167,299.833 72.167 C 299.742 72.167,299.667 72.429,299.667 72.750 C 299.667 73.071,299.592 73.333,299.500 73.333 C 299.408 73.333,299.333 73.483,299.333 73.667 C 299.333 73.850,299.258 74.000,299.167 74.000 C 299.075 74.000,299.000 74.262,299.000 74.583 C 299.000 74.991,298.925 75.167,298.750 75.167 C 298.583 75.167,298.500 75.333,298.500 75.667 C 298.500 75.942,298.425 76.167,298.333 76.167 C 298.242 76.167,298.167 76.312,298.167 76.490 C 298.167 76.668,298.092 76.860,298.000 76.917 C 297.908 76.973,297.833 77.240,297.833 77.510 C 297.833 77.779,297.758 78.000,297.667 78.000 C 297.575 78.000,297.500 78.146,297.500 78.323 C 297.500 78.501,297.425 78.693,297.333 78.750 C 297.242 78.807,297.167 79.074,297.167 79.343 C 297.167 79.613,297.092 79.833,297.000 79.833 C 296.908 79.833,296.833 80.058,296.833 80.333 C 296.833 80.608,296.758 80.833,296.667 80.833 C 296.575 80.833,296.500 80.975,296.500 81.149 C 296.500 81.322,296.387 81.508,296.250 81.560 C 296.104 81.616,296.000 81.866,296.000 82.161 C 296.000 82.439,295.925 82.667,295.833 82.667 C 295.742 82.667,295.667 82.802,295.667 82.967 C 295.667 83.276,295.369 83.667,295.133 83.667 C 295.060 83.667,295.000 83.484,295.000 83.260 C 295.000 83.036,294.925 82.807,294.833 82.750 C 294.742 82.693,294.667 82.501,294.667 82.323 C 294.667 82.146,294.554 82.000,294.417 82.000 C 294.242 82.000,294.167 81.824,294.167 81.417 C 294.167 81.096,294.092 80.833,294.000 80.833 C 293.908 80.833,293.833 80.683,293.833 80.500 C 293.833 80.317,293.758 80.167,293.667 80.167 C 293.575 80.167,293.500 79.904,293.500 79.583 C 293.500 79.262,293.425 79.000,293.333 79.000 C 293.242 79.000,293.167 78.850,293.167 78.667 C 293.167 78.483,293.092 78.333,293.000 78.333 C 292.908 78.333,292.833 78.113,292.833 77.843 C 292.833 77.574,292.758 77.307,292.667 77.250 C 292.575 77.193,292.500 77.007,292.500 76.835 C 292.500 76.664,292.387 76.411,292.250 76.274 C 292.112 76.136,292.000 75.906,292.000 75.762 C 292.000 75.618,291.925 75.500,291.833 75.500 C 291.742 75.500,291.667 75.237,291.667 74.917 C 291.667 74.596,291.592 74.333,291.500 74.333 C 291.408 74.333,291.333 74.183,291.333 74.000 C 291.333 73.817,291.258 73.667,291.167 73.667 C 291.075 73.667,291.000 73.446,291.000 73.177 C 291.000 72.907,290.925 72.640,290.833 72.583 C 290.742 72.527,290.667 72.335,290.667 72.157 C 290.667 71.979,290.592 71.833,290.500 71.833 C 290.408 71.833,290.333 71.643,290.333 71.411 C 290.333 71.179,290.221 70.946,290.083 70.894 C 289.929 70.834,289.833 70.581,289.833 70.232 C 289.833 69.921,289.758 69.667,289.667 69.667 C 289.575 69.667,289.500 69.517,289.500 69.333 C 289.500 69.150,289.425 69.000,289.333 69.000 C 289.242 69.000,289.167 68.779,289.167 68.510 C 289.167 68.240,289.092 67.973,289.000 67.917 C 288.908 67.860,288.833 67.668,288.833 67.490 C 288.833 67.312,288.758 67.167,288.667 67.167 C 288.575 67.167,288.500 66.942,288.500 66.667 C 288.500 66.392,288.425 66.167,288.333 66.167 C 288.242 66.167,288.167 65.979,288.167 65.750 C 288.167 65.491,288.072 65.333,287.917 65.333 C 287.750 65.333,287.667 65.167,287.667 64.833 C 287.667 64.558,287.592 64.333,287.500 64.333 C 287.408 64.333,287.333 64.146,287.333 63.917 C 287.333 63.688,287.258 63.500,287.167 63.500 C 287.075 63.500,287.000 63.275,287.000 63.000 C 287.000 62.725,286.925 62.500,286.833 62.500 C 286.742 62.500,286.667 62.275,286.667 62.000 C 286.667 61.725,286.592 61.500,286.500 61.500 C 286.408 61.500,286.333 61.313,286.333 61.083 C 286.333 60.854,286.263 60.667,286.178 60.667 C 286.092 60.667,285.998 60.460,285.969 60.208 L 285.917 59.750 275.125 59.707 L 264.333 59.664 264.333 80.832 " stroke="none" fill="#34445c" fill-rule="evenodd"></path><path id="path3" d="M78.250 25.406 C 78.067 25.632,77.834 25.821,77.733 25.826 C 77.632 25.830,77.331 26.040,77.064 26.292 C 76.796 26.544,76.354 26.863,76.080 27.000 C 75.512 27.286,75.167 27.581,75.167 27.781 C 75.167 27.857,74.960 28.013,74.708 28.128 C 74.456 28.243,73.965 28.595,73.616 28.910 C 73.267 29.225,72.836 29.530,72.658 29.586 C 72.479 29.643,72.333 29.797,72.333 29.928 C 72.333 30.059,72.221 30.167,72.083 30.167 C 71.946 30.167,71.833 30.242,71.833 30.333 C 71.833 30.425,71.721 30.500,71.583 30.500 C 71.446 30.500,71.333 30.575,71.333 30.667 C 71.333 30.758,71.251 30.833,71.150 30.833 C 71.049 30.833,70.757 31.058,70.500 31.333 C 70.243 31.608,69.966 31.833,69.885 31.833 C 69.803 31.833,69.458 32.096,69.118 32.417 C 68.778 32.737,68.439 33.000,68.364 33.000 C 68.290 33.000,68.084 33.131,67.906 33.292 C 67.729 33.452,67.283 33.805,66.917 34.076 C 66.550 34.347,66.051 34.779,65.808 35.035 C 65.565 35.291,65.246 35.500,65.100 35.500 C 64.953 35.500,64.833 35.575,64.833 35.667 C 64.833 35.758,64.755 35.833,64.659 35.833 C 64.563 35.833,64.302 36.002,64.078 36.208 C 63.005 37.196,62.833 37.333,62.673 37.333 C 62.578 37.333,62.500 37.408,62.500 37.500 C 62.500 37.592,62.397 37.667,62.271 37.667 C 62.145 37.667,61.689 38.004,61.259 38.417 C 60.828 38.829,60.407 39.167,60.321 39.167 C 60.236 39.167,60.167 39.242,60.167 39.333 C 60.167 39.425,60.071 39.500,59.953 39.500 C 59.836 39.500,59.632 39.650,59.500 39.833 C 59.368 40.017,59.181 40.167,59.085 40.167 C 58.918 40.167,57.771 41.044,56.789 41.921 C 56.535 42.148,56.292 42.333,56.249 42.333 C 56.142 42.333,55.537 42.820,54.955 43.375 C 54.691 43.627,54.368 43.833,54.237 43.833 C 54.107 43.833,54.000 43.896,54.000 43.972 C 54.000 44.048,53.813 44.211,53.583 44.333 C 53.042 44.623,53.162 45.500,53.744 45.500 C 53.847 45.500,54.070 45.689,55.223 46.746 C 55.574 47.069,55.975 47.333,56.114 47.333 C 56.253 47.333,56.565 47.543,56.808 47.799 C 57.051 48.055,57.550 48.486,57.917 48.757 C 58.283 49.028,58.729 49.381,58.906 49.542 C 59.084 49.702,59.290 49.833,59.364 49.833 C 59.439 49.833,59.778 50.096,60.118 50.417 C 60.458 50.737,60.803 51.000,60.885 51.000 C 60.966 51.000,61.243 51.225,61.500 51.500 C 61.757 51.775,62.049 52.000,62.150 52.000 C 62.251 52.000,62.333 52.075,62.333 52.167 C 62.333 52.258,62.446 52.333,62.583 52.333 C 62.721 52.333,62.833 52.408,62.833 52.500 C 62.833 52.592,62.911 52.667,63.006 52.667 C 63.101 52.667,63.345 52.818,63.548 53.004 C 64.629 53.992,65.297 54.518,65.708 54.706 C 65.960 54.821,66.167 54.996,66.167 55.096 C 66.167 55.195,66.354 55.377,66.583 55.500 C 66.813 55.623,67.000 55.785,67.000 55.861 C 67.000 55.938,67.113 56.000,67.252 56.000 C 67.390 56.000,67.738 56.225,68.026 56.500 C 68.314 56.775,68.651 57.000,68.775 57.000 C 68.899 57.000,69.001 57.094,69.002 57.208 C 69.003 57.323,69.266 57.586,69.585 57.793 C 69.905 58.000,70.167 58.248,70.167 58.345 C 70.167 58.441,70.233 58.479,70.314 58.428 C 70.396 58.378,70.748 58.599,71.097 58.919 C 71.446 59.238,71.867 59.500,72.033 59.500 C 72.198 59.500,72.333 59.580,72.333 59.679 C 72.333 59.897,72.753 60.333,72.963 60.333 C 73.048 60.333,73.353 60.558,73.640 60.833 C 73.928 61.108,74.201 61.333,74.247 61.333 C 74.293 61.333,74.500 61.479,74.707 61.657 C 75.854 62.642,76.088 62.824,76.484 63.027 C 76.722 63.150,77.104 63.438,77.333 63.668 C 78.114 64.450,79.193 65.060,79.353 64.808 C 79.431 64.685,79.478 55.696,79.456 44.833 L 79.417 25.083 79.000 25.038 C 78.722 25.009,78.473 25.130,78.250 25.406 " stroke="none" fill="#04949c" fill-rule="evenodd"></path><path id="path4" d="" stroke="none" fill="#50646c" fill-rule="evenodd"></path></g></svg>