<svg xmlns="http://www.w3.org/2000/svg" width="412.121" height="412.085" viewBox="0 0 412.121 412.085">
  <g id="Group_4581" data-name="Group 4581" transform="translate(-2985 -4181)">
    <path id="Path_2010" data-name="Path 2010" d="M233.327,474.764a11.323,11.323,0,0,0,11.321,11.321h70.787a11.32,11.32,0,0,0,11.321-11.321V452.816a177.288,177.288,0,0,0,42.489-17.609l15.5,15.5a11.317,11.317,0,0,0,16.013,0l50.034-50.069a11.325,11.325,0,0,0,0-16.009L435.31,369.142a177.284,177.284,0,0,0,17.609-42.489h21.864A11.32,11.32,0,0,0,486.1,315.332V244.545a11.32,11.32,0,0,0-11.321-11.321H452.915a177.312,177.312,0,0,0-17.605-42.485L450.7,175.345a11.322,11.322,0,0,0,0-16.017l-50.073-50.034a11.321,11.321,0,0,0-16.009,0l-15.372,15.376a177.283,177.283,0,0,0-42.489-17.609V85.321A11.32,11.32,0,0,0,315.436,74H244.648a11.323,11.323,0,0,0-11.321,11.321V107.07a177.132,177.132,0,0,0-42.485,17.605L175.466,109.3a11.325,11.325,0,0,0-16.009,0l-50.069,50.038a11.317,11.317,0,0,0,0,16.013l15.394,15.394a177.253,177.253,0,0,0-17.61,42.485H85.345A11.319,11.319,0,0,0,74.024,244.54l-.04,70.787a11.316,11.316,0,0,0,11.321,11.325h21.864a177.283,177.283,0,0,0,17.61,42.489L109.3,384.62a11.321,11.321,0,0,0,0,16.009L159.334,450.7a11.325,11.325,0,0,0,8,3.321h0a11.32,11.32,0,0,0,8-3.317l15.491-15.5a177.436,177.436,0,0,0,42.489,17.609ZM195.278,411.4a11.324,11.324,0,0,0-14.151,1.5l-13.784,13.784-34.029-34.056,13.771-13.775a11.317,11.317,0,0,0,1.5-14.147,154.957,154.957,0,0,1-21.444-51.754,11.324,11.324,0,0,0-11.069-8.942H96.63l.027-48.145h19.418a11.32,11.32,0,0,0,11.069-8.942,154.971,154.971,0,0,1,21.444-51.749,11.317,11.317,0,0,0-1.5-14.147L133.4,167.341l34.056-34.029,13.669,13.674a11.329,11.329,0,0,0,14.151,1.5,154.9,154.9,0,0,1,51.749-21.444,11.328,11.328,0,0,0,8.942-11.069V96.642h48.145v19.33a11.316,11.316,0,0,0,8.942,11.069,155.024,155.024,0,0,1,51.749,21.444,11.312,11.312,0,0,0,14.147-1.5l13.674-13.669,34.056,34.029L413,181.024a11.319,11.319,0,0,0-1.5,14.151,155.064,155.064,0,0,1,21.444,51.749,11.316,11.316,0,0,0,11.069,8.942h19.454v48.145H444.009a11.324,11.324,0,0,0-11.069,8.942A154.931,154.931,0,0,1,411.5,364.7a11.323,11.323,0,0,0,1.5,14.151l13.771,13.771-34.029,34.056L378.957,412.9a11.318,11.318,0,0,0-14.151-1.5,155.065,155.065,0,0,1-51.749,21.444,11.32,11.32,0,0,0-8.942,11.069v19.533H255.969V443.91a11.328,11.328,0,0,0-8.942-11.069A154.97,154.97,0,0,1,195.278,411.4Zm0,0" transform="translate(2911.016 4107)" fill="#efa522"/>
    <g id="light-bulb_1_" data-name="light-bulb (1)" transform="translate(3083.2 4285)">
      <path id="XMLID_49_" d="M130.771,178.02v5.952a9.44,9.44,0,0,1-8.006,9.347l-1.467,5.407a6.73,6.73,0,0,1-6.5,4.988H100.256a6.73,6.73,0,0,1-6.5-4.988l-1.425-5.407a9.483,9.483,0,0,1-8.048-9.389v-5.952a5.725,5.725,0,0,1,5.743-5.743h35A5.787,5.787,0,0,1,130.771,178.02Zm26.952-80.228a49.933,49.933,0,0,1-14.084,34.833,46.021,46.021,0,0,0-12.323,24.982,8.3,8.3,0,0,1-8.216,7H91.957a8.218,8.218,0,0,1-8.174-6.958,46.531,46.531,0,0,0-12.407-25.066,50.181,50.181,0,1,1,86.348-34.791ZM113.208,67.4a5.662,5.662,0,0,0-5.659-5.659A36.252,36.252,0,0,0,71.334,97.959a5.659,5.659,0,1,0,11.317,0,24.928,24.928,0,0,1,24.9-24.9A5.635,5.635,0,0,0,113.208,67.4ZM107.55,31.144a5.662,5.662,0,0,0,5.659-5.659V5.659a5.659,5.659,0,1,0-11.317,0V25.485A5.662,5.662,0,0,0,107.55,31.144ZM40.944,97.75a5.662,5.662,0,0,0-5.659-5.659H15.459a5.659,5.659,0,1,0,0,11.317H35.285A5.635,5.635,0,0,0,40.944,97.75Zm158.7-5.659H179.814a5.659,5.659,0,1,0,0,11.317H199.64a5.659,5.659,0,1,0,0-11.317ZM52.471,144.864,38.429,158.906a5.646,5.646,0,0,0,7.964,8.006L60.435,152.87a5.646,5.646,0,0,0-7.964-8.006ZM158.646,52.312a5.651,5.651,0,0,0,3.982-1.635L176.67,36.635a5.661,5.661,0,1,0-8.006-8.006L154.622,42.671a5.642,5.642,0,0,0,0,8.006A5.747,5.747,0,0,0,158.646,52.312ZM52.471,50.635a5.646,5.646,0,1,0,7.964-8.006L46.393,28.587a5.661,5.661,0,0,0-8.006,8.006Zm110.157,94.229a5.661,5.661,0,0,0-8.006,8.006l14.042,14.042a5.646,5.646,0,1,0,7.964-8.006Z" fill="#efa522"/>
    </g>
  </g>
</svg>
