<svg xmlns="http://www.w3.org/2000/svg" width="502.006" height="480" viewBox="0 0 502.006 480">
  <g id="Group_4583" data-name="Group 4583" transform="translate(-4168 -4652)">
    <path id="Path_2078" data-name="Path 2078" d="M213.308,180.723c5.257,8.553,7.9,17.187,7.856,25.674l-.216,41.722A47.09,47.09,0,0,0,267.74,295.4h.25a47.034,47.034,0,0,0,47.027-46.785l.216-41.721c.043-8.453,2.782-17.073,8.128-25.607A84.664,84.664,0,0,0,269.1,32h-.45a84.664,84.664,0,0,0-55.345,148.723Zm54.81,39.419h.067l28.166.146-.1,18.814-56.443-.292.1-18.814Zm19.714,48.279a28.028,28.028,0,0,1-19.843,8.164h-.147a28.27,28.27,0,0,1-26.512-18.951l53.231.274A28.1,28.1,0,0,1,287.831,268.421ZM222.342,69.864a65.414,65.414,0,0,1,46.313-19.049h.353a65.85,65.85,0,0,1,41.214,116.928,9.408,9.408,0,0,0-2.01,2.267c-.109.174-.215.353-.315.534a69.407,69.407,0,0,0-11.209,30.926l-19.049-.1.242-47.036a9.407,9.407,0,0,0-5.156-8.441l-27.918-14.132a8.035,8.035,0,0,1,3.629-15.2h.042l40.373.209a8.034,8.034,0,0,1,8,8.076l-.055,10.779a9.407,9.407,0,0,0,9.358,9.455h.051a9.407,9.407,0,0,0,9.407-9.359l.055-10.779a26.849,26.849,0,0,0-26.709-26.987l-40.373-.209h-.141a26.849,26.849,0,0,0-12.129,50.8l22.728,11.511-.213,41.221-19.049-.1a68.971,68.971,0,0,0-10.913-31.082c-.107-.194-.22-.386-.337-.573a9.385,9.385,0,0,0-1.943-2.219,65.85,65.85,0,0,1-4.233-97.444Z" transform="translate(4316.673 4640)" fill="#e36537"/>
    <path id="Path_2079" data-name="Path 2079" d="M424,368H85.6l-84,56,84,56H424a56,56,0,0,0,0-112Zm-56,32H123.312l-16-16H368ZM122.4,432l-12-8,12-8H368v16ZM86.96,386.3l20.453,20.465L81.6,424l25.863,17.238L87.007,461.7,30.4,424ZM107.312,464l16-16H368v16ZM400,464H384V384h16Zm24,0h-8V384h8a40,40,0,0,1,0,80Zm0,0" transform="translate(4168 4652)" fill="#e36537"/>
    <path id="Path_2081" data-name="Path 2081" d="M152,0A152,152,0,1,0,304,152,152,152,0,0,0,152,0Zm-8,144H72.238a213.7,213.7,0,0,1,7.883-51.32A223.2,223.2,0,0,0,144,103.824Zm0,16v40.176A223.2,223.2,0,0,0,80.121,211.32,213.7,213.7,0,0,1,72.238,160Zm16,0h71.762a213.7,213.7,0,0,1-7.883,51.32A223.2,223.2,0,0,0,160,200.176Zm0-16V103.824A223.2,223.2,0,0,0,223.879,92.68,213.7,213.7,0,0,1,231.762,144Zm0-56.344V16.687c24.551,4.168,45.84,27.3,58.777,60.617A206.257,206.257,0,0,1,160,87.656ZM144,16.687V87.656A206.548,206.548,0,0,1,85.223,77.3C98.16,44,119.449,20.855,144,16.687ZM56.258,144H16.406A135,135,0,0,1,40.953,73.754,150.785,150.785,0,0,0,65.367,86.946,224.165,224.165,0,0,0,56.258,144Zm0,16a224.165,224.165,0,0,0,9.109,57.055,152.035,152.035,0,0,0-24.414,13.191A135.071,135.071,0,0,1,16.406,160ZM144,216.344v70.969c-24.551-4.168-45.84-27.3-58.785-60.617A206.333,206.333,0,0,1,144,216.344Zm16,70.969V216.344A206.549,206.549,0,0,1,218.777,226.7C205.84,260,184.551,283.145,160,287.313ZM247.742,160h39.852a135,135,0,0,1-24.547,70.246,150.787,150.787,0,0,0-24.414-13.191A224.165,224.165,0,0,0,247.742,160Zm0-16a224.165,224.165,0,0,0-9.109-57.055,152.036,152.036,0,0,0,24.414-13.191A135.071,135.071,0,0,1,287.594,144Zm5.273-82.734A136.482,136.482,0,0,1,233.4,71.8a146.257,146.257,0,0,0-26.238-44,136.458,136.458,0,0,1,45.855,33.465ZM96.84,27.8A146.258,146.258,0,0,0,70.6,71.8,136.681,136.681,0,0,1,50.984,61.266,136.454,136.454,0,0,1,96.84,27.8ZM50.984,242.735A136.483,136.483,0,0,1,70.6,232.2a146.258,146.258,0,0,0,26.238,44A136.458,136.458,0,0,1,50.984,242.735ZM207.2,276.2a146.35,146.35,0,0,0,26.242-44,136.639,136.639,0,0,1,19.613,10.535A136.454,136.454,0,0,1,207.2,276.2Zm0,0" transform="translate(4168 4652)" fill="#e36537"/>
  </g>
</svg>
