<svg xmlns="http://www.w3.org/2000/svg" width="480.002" height="448" viewBox="0 0 480.002 448">
  <g id="packaging_1_" data-name="packaging (1)" transform="translate(-15.998 -32)">
    <path id="Path_2057" data-name="Path 2057" d="M208.924,158.477c4.471,7.274,6.718,14.616,6.681,21.834l-.184,35.481A40.046,40.046,0,0,0,255.214,256h.213a40,40,0,0,0,39.993-39.786l.184-35.48c.037-7.189,2.366-14.519,6.912-21.777A72,72,0,0,0,256.373,32h-.383a72,72,0,0,0-47.066,126.477ZM255.535,192h.057l23.953.124-.083,16-48-.248.083-16ZM272.3,233.057A23.835,23.835,0,0,1,255.425,240H255.3a24.041,24.041,0,0,1-22.546-16.116l45.269.233A23.9,23.9,0,0,1,272.3,233.057ZM216.607,64.2A55.629,55.629,0,0,1,255.992,48h.3a56,56,0,0,1,35.049,99.438,8,8,0,0,0-1.709,1.928c-.093.148-.183.3-.268.454a59.024,59.024,0,0,0-9.532,26.3l-16.2-.084.206-40a8,8,0,0,0-4.385-7.178L235.711,116.84a6.833,6.833,0,0,1,3.086-12.929h.036l34.334.178a6.832,6.832,0,0,1,6.8,6.868l-.047,9.167a8,8,0,0,0,7.958,8.041h.043a8,8,0,0,0,8-7.959l.047-9.167a22.833,22.833,0,0,0-22.714-22.95l-34.334-.178h-.12a22.833,22.833,0,0,0-10.315,43.2l19.328,9.789-.181,35.055-16.2-.084a58.654,58.654,0,0,0-9.281-26.433c-.091-.165-.187-.328-.287-.487a7.981,7.981,0,0,0-1.652-1.887,56,56,0,0,1-3.6-82.868Z" fill="#1673a7"/>
    <path id="Path_2058" data-name="Path 2058" d="M152,272c0-.686-.027-1.366-.052-2.046A55.977,55.977,0,0,0,96,173.412a55.977,55.977,0,0,0-55.948,96.54c-.025.68-.052,1.36-.052,2.046a56,56,0,1,0,112,0ZM96,192.02a40.025,40.025,0,0,1,15.577,26.2,55.735,55.735,0,0,0-31.154,0A40.025,40.025,0,0,1,96,192.02ZM80.046,263.185a39.976,39.976,0,0,1-22.569-1.928,40.008,40.008,0,0,1,10.16-17.433,56.14,56.14,0,0,0,12.409,19.361Zm1.431-28.446a39.845,39.845,0,0,1,29.046,0A40.116,40.116,0,0,1,96,255.976a40.116,40.116,0,0,1-14.523-21.237Zm42.886,9.085a40.008,40.008,0,0,1,10.16,17.433,39.976,39.976,0,0,1-22.569,1.928,56.14,56.14,0,0,0,12.409-19.361ZM160,224a39.868,39.868,0,0,1-11.637,28.174,56.287,56.287,0,0,0-20.415-26.128c.025-.68.052-1.36.052-2.046a55.8,55.8,0,0,0-16.046-39.187A40.02,40.02,0,0,1,160,224ZM32,224a40.02,40.02,0,0,1,48.046-39.187A55.8,55.8,0,0,0,64,224c0,.686.027,1.366.052,2.046a56.287,56.287,0,0,0-20.415,26.128A39.868,39.868,0,0,1,32,224Zm64,88a40.058,40.058,0,0,1-39.577-34.221A55.838,55.838,0,0,0,96,274.584a55.838,55.838,0,0,0,39.577,3.193A40.058,40.058,0,0,1,96,312Z" fill="#1673a7"/>
    <path id="Path_2059" data-name="Path 2059" d="M224,400h64v16H224Z" fill="#1673a7"/>
    <path id="Path_2060" data-name="Path 2060" d="M455.985,218.444H432.831l-7.154-22.02a16,16,0,0,0-30.434,0l-7.155,22.019H364.935a16,16,0,0,0-9.4,28.946L374.262,261l-7.155,22.02a16,16,0,0,0,24.621,17.888L410.46,287.3l18.731,13.61a16,16,0,0,0,24.621-17.887L446.658,261l18.732-13.609a16,16,0,0,0-9.4-28.945Zm-18.732,29.61a15.958,15.958,0,0,0-5.812,17.887l7.155,22.021-18.732-13.61a15.96,15.96,0,0,0-18.809,0L382.324,287.96l7.155-22.021a15.962,15.962,0,0,0-5.813-17.888l-18.731-13.608h23.153a15.96,15.96,0,0,0,15.217-11.055l7.154-22.02,7.154,22.022a15.962,15.962,0,0,0,15.218,11.054h23.153Z" fill="#1673a7"/>
    <path id="Path_2061" data-name="Path 2061" d="M456,176h16v16H456Z" fill="#1673a7"/>
    <path id="Path_2062" data-name="Path 2062" d="M480,152h16v16H480Z" fill="#1673a7"/>
    <path id="Path_2063" data-name="Path 2063" d="M432,152h16v16H432Z" fill="#1673a7"/>
    <path id="Path_2064" data-name="Path 2064" d="M456,128h16v16H456Z" fill="#1673a7"/>
    <path id="Path_2065" data-name="Path 2065" d="M376,128h16V112H376V96H360v16h16Z" fill="#1673a7"/>
    <path id="Path_2066" data-name="Path 2066" d="M392,96h16v16H392Z" fill="#1673a7"/>
    <path id="Path_2067" data-name="Path 2067" d="M376,80h16V96H376Z" fill="#1673a7"/>
    <path id="Path_2068" data-name="Path 2068" d="M120,112h16v16H120Z" fill="#1673a7"/>
    <path id="Path_2069" data-name="Path 2069" d="M136,96h16v16H136Z" fill="#1673a7"/>
    <path id="Path_2070" data-name="Path 2070" d="M104,96h16v16H104Z" fill="#1673a7"/>
    <path id="Path_2071" data-name="Path 2071" d="M120,80h16V96H120Z" fill="#1673a7"/>
    <path id="Path_2072" data-name="Path 2072" d="M341.657,322.341A7.975,7.975,0,0,0,336,320H320.273a45.78,45.78,0,0,1,20.165-33.344,8,8,0,1,0-8.876-13.311A61.745,61.745,0,0,0,304.2,320H288.047a73.412,73.412,0,0,1,21.61-50.341,8,8,0,1,0-11.314-11.314A89.307,89.307,0,0,0,272.047,320H239.953a89.307,89.307,0,0,0-26.3-61.655,8,8,0,1,0-11.314,11.314A73.412,73.412,0,0,1,223.953,320H207.805a61.743,61.743,0,0,0-27.367-46.655,8,8,0,1,0-8.875,13.312A45.78,45.78,0,0,1,191.728,320H176a7.979,7.979,0,0,0-5.657,2.343l-48,48A8,8,0,0,0,128,384h40v88a8,8,0,0,0,8,8H336a8,8,0,0,0,8-8V384h40a8,8,0,0,0,5.657-13.657ZM240,336h32v32H240Zm-92.687,32L168,347.312V368ZM328,464H184V336h40v40a8,8,0,0,0,8,8h48a8,8,0,0,0,8-8V336h40Zm16-96V347.312L364.687,368Z" fill="#1673a7"/>
  </g>
</svg>
