<svg xmlns="http://www.w3.org/2000/svg" width="267.163" height="289.933" viewBox="0 0 267.163 289.933">
  <g id="Expand" transform="translate(-6 -5.568)">
    <rect id="Rectangle_696" data-name="Rectangle 696" width="10.275" height="10.275" transform="translate(36.826 28.339)" fill="#28827d"/>
    <rect id="Rectangle_697" data-name="Rectangle 697" width="51.377" height="10.275" transform="translate(57.377 28.339)" fill="#28827d"/>
    <rect id="Rectangle_698" data-name="Rectangle 698" width="82.204" height="10.275" transform="translate(26.551 48.889)" fill="#28827d"/>
    <rect id="Rectangle_699" data-name="Rectangle 699" width="66.791" height="10.275" transform="translate(26.551 69.44)" fill="#28827d"/>
    <rect id="Rectangle_700" data-name="Rectangle 700" width="10.275" height="10.275" transform="translate(180.683 79.716)" fill="#28827d"/>
    <rect id="Rectangle_701" data-name="Rectangle 701" width="51.377" height="10.275" transform="translate(201.234 79.716)" fill="#28827d"/>
    <rect id="Rectangle_702" data-name="Rectangle 702" width="82.204" height="10.275" transform="translate(170.408 100.267)" fill="#28827d"/>
    <rect id="Rectangle_703" data-name="Rectangle 703" width="66.791" height="10.275" transform="translate(170.408 120.818)" fill="#28827d"/>
    <path id="Path_2073" data-name="Path 2073" d="M8.113,27.957C8.041,29.719,8,31.517,8,33.316s.041,3.6.113,5.359l10.275-.442c-.077-1.629-.113-3.273-.113-4.917s.036-3.288.108-4.917Z" transform="translate(8.275 92.64)" fill="#28827d"/>
    <path id="Path_2074" data-name="Path 2074" d="M55.421,114.959l6.258-8.148A112.219,112.219,0,0,1,18.4,31.871L8.2,33.2a122.443,122.443,0,0,0,47.221,81.762Z" transform="translate(9.103 108.835)" fill="#28827d"/>
    <path id="Path_2075" data-name="Path 2075" d="M100.785,40.181A122.792,122.792,0,0,0,39,5.568L36.784,15.6a112.63,112.63,0,0,1,56.6,31.746Z" transform="translate(127.376 0)" fill="#28827d"/>
    <path id="Path_2076" data-name="Path 2076" d="M239.043,149.857h28.982a5.138,5.138,0,0,0,5.138-5.138v-82.2a5.138,5.138,0,0,0-5.138-5.138H217.619a102.37,102.37,0,0,0-78.037-35.964c-3.437,0-6.869.231-10.275.57V11.138A5.138,5.138,0,0,0,124.168,6H11.138A5.138,5.138,0,0,0,6,11.138v82.2a5.138,5.138,0,0,0,5.138,5.138H40.11a102.442,102.442,0,0,0,58.37,119.71v3.6H93.342a5.138,5.138,0,0,0-5.138,5.138v41.1a5.138,5.138,0,0,0,5.138,5.138h5.138V278.3a15.413,15.413,0,0,0,15.413,15.413H165.27A15.413,15.413,0,0,0,180.683,278.3v-5.138h5.138a5.138,5.138,0,0,0,5.138-5.138v-41.1a5.138,5.138,0,0,0-5.138-5.138h-5.138v-3.6A102.431,102.431,0,0,0,239.043,149.857Zm23.844-10.275h-46.24a5.138,5.138,0,0,0-3.083,1.028l-12.331,9.248v-5.138a5.138,5.138,0,0,0-5.138-5.138H160.132V67.653H262.887ZM149.857,165.27v56.515H129.306V165.27a5.138,5.138,0,0,0-.539-2.3l-15.331-30.657,24.733,7.07a5.179,5.179,0,0,0,2.826,0l8.863-2.533v7.866a5.138,5.138,0,0,0,5.138,5.138h1.963l-6.587,13.117A5.138,5.138,0,0,0,149.857,165.27ZM16.275,16.275H119.03V88.2h-41.1a5.138,5.138,0,0,0-5.138,5.138v5.138L60.46,89.232A5.138,5.138,0,0,0,57.377,88.2h-41.1Zm89.238,193.693A92.063,92.063,0,0,1,50.791,98.479h4.876l19.179,14.386a5.138,5.138,0,0,0,8.22-4.11V98.479h41.1a5.138,5.138,0,0,0,5.138-5.138V32.321a93.813,93.813,0,0,1,10.275-.632,92.058,92.058,0,0,1,63.9,25.689H154.995a5.138,5.138,0,0,0-5.138,5.138v63.646L139.581,129.1l-34.551-9.875a5.169,5.169,0,0,0-4.5.832L79.984,135.471l6.165,8.22,15.624-11.719,17.258,34.51v55.3H108.755v-7.034A5.138,5.138,0,0,0,105.513,209.969Zm-7.034,22.092h82.2v10.275h-82.2Zm71.928,46.24a5.138,5.138,0,0,1-5.138,5.138H113.893a5.138,5.138,0,0,1-5.138-5.138v-5.138h61.653Zm10.275-15.413h-82.2V252.612h82.2Zm-20.551-41.1v-55.3l8.313-16.626h22.514v10.275a5.138,5.138,0,0,0,8.22,4.11l19.179-14.386h10.06a92.269,92.269,0,0,1-54.768,60.112,5.138,5.138,0,0,0-3.242,4.778v7.039Z" transform="translate(0 1.788)" fill="#28827d"/>
  </g>
</svg>
