<svg xmlns="http://www.w3.org/2000/svg" width="496" height="496.011" viewBox="0 0 496 496.011">
  <g id="team_1_" data-name="team (1)" transform="translate(-0.007 -0.001)">
    <path id="Path_2082" data-name="Path 2082" d="M451.023,405.316a39.781,39.781,0,0,0,12.984-29.3v-16a40,40,0,0,0-79.2-8H358.535a23.862,23.862,0,0,0-45.059,0H287.2a40.126,40.126,0,0,0-31.191-31.191V302.875a31.958,31.958,0,0,0,24-30.863h8a7.993,7.993,0,0,0,8-8v-24h16v-16h-16v-.086c0-15.3,7.254-30.348,19.9-41.242A103.948,103.948,0,0,0,243.718.1c-54,2.176-98.73,47.941-99.7,102.016A103.726,103.726,0,0,0,179.429,182.1c12.688,11.117,20.063,26.328,20.5,41.91H184.007v16h16v24a7.99,7.99,0,0,0,8,8h8a31.954,31.954,0,0,0,24,30.863V320.82a40.13,40.13,0,0,0-31.2,31.191H182.535a23.862,23.862,0,0,0-45.059,0H111.2a40,40,0,0,0-79.191,8v16a39.777,39.777,0,0,0,12.98,29.3,72.078,72.078,0,0,0-44.98,66.7v16a7.99,7.99,0,0,0,8,8h128a7.993,7.993,0,0,0,8-8v-16a72.081,72.081,0,0,0-44.984-66.7,39.781,39.781,0,0,0,12.984-29.3v-8h25.469a23.862,23.862,0,0,0,45.059,0h25.473v8a39.777,39.777,0,0,0,12.98,29.3,72.078,72.078,0,0,0-44.98,66.7v16a7.99,7.99,0,0,0,8,8h128a7.993,7.993,0,0,0,8-8v-16a72.081,72.081,0,0,0-44.984-66.7,39.781,39.781,0,0,0,12.984-29.3v-8h25.469a23.862,23.862,0,0,0,45.059,0h25.473v8a39.777,39.777,0,0,0,12.98,29.3,72.078,72.078,0,0,0-44.98,66.7v16a7.99,7.99,0,0,0,8,8h128a7.993,7.993,0,0,0,8-8v-16a72.081,72.081,0,0,0-44.984-66.7Zm-323.016,66.7v8h-16v-16h-16v16h-48v-16h-16v16h-16v-8a56,56,0,0,1,112,0Zm-80-96v-16a24,24,0,0,1,48,0v16a24,24,0,0,1-48,0Zm112-8a8,8,0,1,1,8-8A8,8,0,0,1,160.007,368.011Zm29.965-197.945a87.736,87.736,0,0,1-29.949-67.672c.824-45.75,38.656-84.469,84.336-86.312a87.928,87.928,0,0,1,61.1,154.473c-16.176,13.953-25.453,33.4-25.453,53.371v.086H215.925c-.434-20.184-9.793-39.785-25.953-53.945Zm90.035,69.945v16h-64v-16Zm-48,32h32a16,16,0,0,1-32,0Zm72,200v8h-16v-16h-16v16h-48v-16h-16v16h-16v-8a56,56,0,0,1,112,0Zm-80-96v-16a24,24,0,0,1,48,0v16a24,24,0,0,1-48,0Zm112-8a8,8,0,1,1,8-8A8,8,0,0,1,336.007,368.012Zm64,8v-16a24,24,0,0,1,48,0v16a24,24,0,0,1-48,0Zm80,104h-16v-16h-16v16h-48v-16h-16v16h-16v-8a56,56,0,0,1,112,0Zm0,0" fill="#c4514e"/>
    <path id="Path_2083" data-name="Path 2083" d="M232.008,192.012h32v16h-32Zm0,0" fill="#c4514e"/>
    <path id="Path_2084" data-name="Path 2084" d="M240.008,143.2v16.809h16V143.2a39.662,39.662,0,0,0,14.023-5.855l12.32,12.32,11.309-11.312-12.316-12.32a39.776,39.776,0,0,0,5.855-14.023h16.809v-16H287.2a39.775,39.775,0,0,0-5.855-14.023l12.316-12.32L282.352,58.355l-12.32,12.32a39.662,39.662,0,0,0-14.023-5.855V48.012h-16V64.82a39.68,39.68,0,0,0-14.027,5.855l-12.32-12.32L202.352,69.668l12.32,12.32a39.711,39.711,0,0,0-5.859,14.023h-16.8v16h16.8a39.71,39.71,0,0,0,5.859,14.023l-12.32,12.32,11.309,11.313,12.32-12.32A39.681,39.681,0,0,0,240.008,143.2Zm8-63.191a24,24,0,1,1-24,24,24.031,24.031,0,0,1,24-24Zm0,0" fill="#c4514e"/>
  </g>
</svg>
